<svg xmlns="http://www.w3.org/2000/svg" viewBox="306.0 48.0 188.0 527.0" role="img" aria-label="Three-strand braid"><defs><filter id="edge-braid-3" x="-10%" y="-10%" width="120%" height="120%"><feColorMatrix type="matrix" values="0.55 0 0 0 0  0 0.55 0 0 0  0 0 0.55 0 0  0 0 0 1 0"/></filter><mask id="braid-3-m0" maskUnits="userSpaceOnUse" x="-4000" y="-4000" width="8000" height="8000"><path d="M400.0 90.0L348.0 152.0" stroke="#fff" stroke-width="62"/></mask><mask id="braid-3-m1" maskUnits="userSpaceOnUse" x="-4000" y="-4000" width="8000" height="8000"><path d="M452.0 152.0L400.0 214.0" stroke="#fff" stroke-width="62"/></mask><mask id="braid-3-m2" maskUnits="userSpaceOnUse" x="-4000" y="-4000" width="8000" height="8000"><path d="M400.0 214.0L348.0 276.0" stroke="#fff" stroke-width="62"/></mask><mask id="braid-3-m3" maskUnits="userSpaceOnUse" x="-4000" y="-4000" width="8000" height="8000"><path d="M452.0 276.0L400.0 338.0" stroke="#fff" stroke-width="62"/></mask><mask id="braid-3-m4" maskUnits="userSpaceOnUse" x="-4000" y="-4000" width="8000" height="8000"><path d="M400.0 338.0L348.0 400.0" stroke="#fff" stroke-width="62"/></mask><mask id="braid-3-m5" maskUnits="userSpaceOnUse" x="-4000" y="-4000" width="8000" height="8000"><path d="M452.0 400.0L400.0 462.0" stroke="#fff" stroke-width="62"/></mask><mask id="braid-3-m6" maskUnits="userSpaceOnUse" x="-4000" y="-4000" width="8000" height="8000"><path d="M400.0 462.0L348.0 524.0" stroke="#fff" stroke-width="62"/></mask><g id="weave-braid-3" fill="none" stroke-linecap="round" stroke-linejoin="round"><g transform="matrix(1 0 0 1 0 0)"><g><path d="M348.0 90.0L400.0 152.0" stroke="#1e1e1e" stroke-width="56"/><path d="M348.0 90.0L400.0 152.0" stroke="#f5c837" stroke-width="46"/></g><g><path d="M400.0 90.0L348.0 152.0" stroke="#1e1e1e" stroke-width="56"/><path d="M400.0 90.0L348.0 152.0" stroke="#e27a26" stroke-width="46"/></g><g><path d="M452.0 90.0L452.0 152.0" stroke="#1e1e1e" stroke-width="56"/><path d="M452.0 90.0L452.0 152.0" stroke="#3caaaf" stroke-width="46"/></g><g><path d="M400.0 152.0L452.0 214.0" stroke="#1e1e1e" stroke-width="56"/><path d="M400.0 152.0L452.0 214.0" stroke="#f5c837" stroke-width="46"/></g><g><path d="M348.0 152.0L348.0 214.0" stroke="#1e1e1e" stroke-width="56"/><path d="M348.0 152.0L348.0 214.0" stroke="#e27a26" stroke-width="46"/></g><g><path d="M452.0 152.0L400.0 214.0" stroke="#1e1e1e" stroke-width="56"/><path d="M452.0 152.0L400.0 214.0" stroke="#3caaaf" stroke-width="46"/></g><g><path d="M452.0 214.0L452.0 276.0" stroke="#1e1e1e" stroke-width="56"/><path d="M452.0 214.0L452.0 276.0" stroke="#f5c837" stroke-width="46"/></g><g><path d="M348.0 214.0L400.0 276.0" stroke="#1e1e1e" stroke-width="56"/><path d="M348.0 214.0L400.0 276.0" stroke="#e27a26" stroke-width="46"/></g><g><path d="M400.0 214.0L348.0 276.0" stroke="#1e1e1e" stroke-width="56"/><path d="M400.0 214.0L348.0 276.0" stroke="#3caaaf" stroke-width="46"/></g><g><path d="M452.0 276.0L400.0 338.0" stroke="#1e1e1e" stroke-width="56"/><path d="M452.0 276.0L400.0 338.0" stroke="#f5c837" stroke-width="46"/></g><g><path d="M400.0 276.0L452.0 338.0" stroke="#1e1e1e" stroke-width="56"/><path d="M400.0 276.0L452.0 338.0" stroke="#e27a26" stroke-width="46"/></g><g><path d="M348.0 276.0L348.0 338.0" stroke="#1e1e1e" stroke-width="56"/><path d="M348.0 276.0L348.0 338.0" stroke="#3caaaf" stroke-width="46"/></g><g><path d="M400.0 338.0L348.0 400.0" stroke="#1e1e1e" stroke-width="56"/><path d="M400.0 338.0L348.0 400.0" stroke="#f5c837" stroke-width="46"/></g><g><path d="M452.0 338.0L452.0 400.0" stroke="#1e1e1e" stroke-width="56"/><path d="M452.0 338.0L452.0 400.0" stroke="#e27a26" stroke-width="46"/></g><g><path d="M348.0 338.0L400.0 400.0" stroke="#1e1e1e" stroke-width="56"/><path d="M348.0 338.0L400.0 400.0" stroke="#3caaaf" stroke-width="46"/></g><g><path d="M348.0 400.0L348.0 462.0" stroke="#1e1e1e" stroke-width="56"/><path d="M348.0 400.0L348.0 462.0" stroke="#f5c837" stroke-width="46"/></g><g><path d="M452.0 400.0L400.0 462.0" stroke="#1e1e1e" stroke-width="56"/><path d="M452.0 400.0L400.0 462.0" stroke="#e27a26" stroke-width="46"/></g><g><path d="M400.0 400.0L452.0 462.0" stroke="#1e1e1e" stroke-width="56"/><path d="M400.0 400.0L452.0 462.0" stroke="#3caaaf" stroke-width="46"/></g><g><path d="M348.0 462.0L400.0 524.0" stroke="#1e1e1e" stroke-width="56"/><path d="M348.0 462.0L400.0 524.0" stroke="#f5c837" stroke-width="46"/></g><g><path d="M400.0 462.0L348.0 524.0" stroke="#1e1e1e" stroke-width="56"/><path d="M400.0 462.0L348.0 524.0" stroke="#e27a26" stroke-width="46"/></g><g><path d="M452.0 462.0L452.0 524.0" stroke="#1e1e1e" stroke-width="56"/><path d="M452.0 462.0L452.0 524.0" stroke="#3caaaf" stroke-width="46"/></g><g mask="url(#braid-3-m0)"><path d="M348.0 90.0L400.0 152.0" stroke="#1e1e1e" stroke-width="56"/><path d="M348.0 90.0L400.0 152.0" stroke="#f5c837" stroke-width="46"/></g><g mask="url(#braid-3-m1)"><path d="M400.0 152.0L452.0 214.0" stroke="#1e1e1e" stroke-width="56"/><path d="M400.0 152.0L452.0 214.0" stroke="#f5c837" stroke-width="46"/></g><g mask="url(#braid-3-m2)"><path d="M348.0 214.0L400.0 276.0" stroke="#1e1e1e" stroke-width="56"/><path d="M348.0 214.0L400.0 276.0" stroke="#e27a26" stroke-width="46"/></g><g mask="url(#braid-3-m3)"><path d="M400.0 276.0L452.0 338.0" stroke="#1e1e1e" stroke-width="56"/><path d="M400.0 276.0L452.0 338.0" stroke="#e27a26" stroke-width="46"/></g><g mask="url(#braid-3-m4)"><path d="M348.0 338.0L400.0 400.0" stroke="#1e1e1e" stroke-width="56"/><path d="M348.0 338.0L400.0 400.0" stroke="#3caaaf" stroke-width="46"/></g><g mask="url(#braid-3-m5)"><path d="M400.0 400.0L452.0 462.0" stroke="#1e1e1e" stroke-width="56"/><path d="M400.0 400.0L452.0 462.0" stroke="#3caaaf" stroke-width="46"/></g><g mask="url(#braid-3-m6)"><path d="M348.0 462.0L400.0 524.0" stroke="#1e1e1e" stroke-width="56"/><path d="M348.0 462.0L400.0 524.0" stroke="#f5c837" stroke-width="46"/></g></g></g></defs><use href="#weave-braid-3" y="9" filter="url(#edge-braid-3)"/><use href="#weave-braid-3"/></svg>
