<svg xmlns="http://www.w3.org/2000/svg" viewBox="3.6 -420.9 950.1 658.1" role="img" aria-label="Twist stitch — 3×1, 10 twists"><defs><filter id="edge-twist-3x1-10" x="-10%" y="-10%" width="120%" height="120%"><feColorMatrix type="matrix" values="0.55 0 0 0 0  0 0.55 0 0 0  0 0 0.55 0 0  0 0 0 1 0"/></filter><mask id="twist-3x1-10-m0" maskUnits="userSpaceOnUse" x="-4000" y="-4000" width="8000" height="8000"><path d="M481.0 219.0L481.0 483.9" stroke="#fff" stroke-width="70"/></mask><mask id="twist-3x1-10-m1" maskUnits="userSpaceOnUse" x="-4000" y="-4000" width="8000" height="8000"><path d="M373.0 219.0L373.0 466.4" stroke="#fff" stroke-width="70"/></mask><mask id="twist-3x1-10-m2" maskUnits="userSpaceOnUse" x="-4000" y="-4000" width="8000" height="8000"><path d="M265.0 219.0L265.0 448.9" stroke="#fff" stroke-width="70"/></mask><mask id="twist-3x1-10-m3" maskUnits="userSpaceOnUse" x="-4000" y="-4000" width="8000" height="8000"><path d="M535.0 381.0L535.0 151.1" stroke="#fff" stroke-width="70"/></mask><mask id="twist-3x1-10-m4" maskUnits="userSpaceOnUse" x="-4000" y="-4000" width="8000" height="8000"><path d="M427.0 381.0L427.0 133.6" stroke="#fff" stroke-width="70"/></mask><mask id="twist-3x1-10-m5" maskUnits="userSpaceOnUse" x="-4000" y="-4000" width="8000" height="8000"><path d="M319.0 381.0L319.0 116.1" stroke="#fff" stroke-width="70"/></mask><mask id="twist-3x1-10-m6" maskUnits="userSpaceOnUse" x="-4000" y="-4000" width="8000" height="8000"><path d="M535.0 151.1L418.7 500.1" stroke="#fff" stroke-width="70"/></mask><mask id="twist-3x1-10-m7" maskUnits="userSpaceOnUse" x="-4000" y="-4000" width="8000" height="8000"><path d="M427.0 133.6L321.8 449.3" stroke="#fff" stroke-width="70"/></mask><mask id="twist-3x1-10-m8" maskUnits="userSpaceOnUse" x="-4000" y="-4000" width="8000" height="8000"><path d="M319.0 116.1L224.9 398.5" stroke="#fff" stroke-width="70"/></mask><mask id="twist-3x1-10-m9" maskUnits="userSpaceOnUse" x="-4000" y="-4000" width="8000" height="8000"><path d="M481.0 483.9L575.1 201.5" stroke="#fff" stroke-width="70"/></mask><mask id="twist-3x1-10-m10" maskUnits="userSpaceOnUse" x="-4000" y="-4000" width="8000" height="8000"><path d="M373.0 466.4L478.2 150.7" stroke="#fff" stroke-width="70"/></mask><mask id="twist-3x1-10-m11" maskUnits="userSpaceOnUse" x="-4000" y="-4000" width="8000" height="8000"><path d="M265.0 448.9L381.3 99.9" stroke="#fff" stroke-width="70"/></mask><mask id="twist-3x1-10-m12" maskUnits="userSpaceOnUse" x="-4000" y="-4000" width="8000" height="8000"><path d="M575.1 201.5L354.5 495.7" stroke="#fff" stroke-width="70"/></mask><mask id="twist-3x1-10-m13" maskUnits="userSpaceOnUse" x="-4000" y="-4000" width="8000" height="8000"><path d="M478.2 150.7L278.6 416.9" stroke="#fff" stroke-width="70"/></mask><mask id="twist-3x1-10-m14" maskUnits="userSpaceOnUse" x="-4000" y="-4000" width="8000" height="8000"><path d="M381.3 99.9L202.7 338.1" stroke="#fff" stroke-width="70"/></mask><mask id="twist-3x1-10-m15" maskUnits="userSpaceOnUse" x="-4000" y="-4000" width="8000" height="8000"><path d="M418.7 500.1L597.3 261.9" stroke="#fff" stroke-width="70"/></mask><mask id="twist-3x1-10-m16" maskUnits="userSpaceOnUse" x="-4000" y="-4000" width="8000" height="8000"><path d="M321.8 449.3L521.4 183.1" stroke="#fff" stroke-width="70"/></mask><mask id="twist-3x1-10-m17" maskUnits="userSpaceOnUse" x="-4000" y="-4000" width="8000" height="8000"><path d="M224.9 398.5L445.5 104.3" stroke="#fff" stroke-width="70"/></mask><mask id="twist-3x1-10-m18" maskUnits="userSpaceOnUse" x="-4000" y="-4000" width="8000" height="8000"><path d="M597.3 261.9L294.9 471.3" stroke="#fff" stroke-width="70"/></mask><mask id="twist-3x1-10-m19" maskUnits="userSpaceOnUse" x="-4000" y="-4000" width="8000" height="8000"><path d="M521.4 183.1L247.8 372.5" stroke="#fff" stroke-width="70"/></mask><mask id="twist-3x1-10-m20" maskUnits="userSpaceOnUse" x="-4000" y="-4000" width="8000" height="8000"><path d="M445.5 104.3L200.8 273.7" stroke="#fff" stroke-width="70"/></mask><mask id="twist-3x1-10-m21" maskUnits="userSpaceOnUse" x="-4000" y="-4000" width="8000" height="8000"><path d="M354.5 495.7L599.2 326.3" stroke="#fff" stroke-width="70"/></mask><mask id="twist-3x1-10-m22" maskUnits="userSpaceOnUse" x="-4000" y="-4000" width="8000" height="8000"><path d="M278.6 416.9L552.2 227.5" stroke="#fff" stroke-width="70"/></mask><mask id="twist-3x1-10-m23" maskUnits="userSpaceOnUse" x="-4000" y="-4000" width="8000" height="8000"><path d="M202.7 338.1L505.1 128.7" stroke="#fff" stroke-width="70"/></mask><mask id="twist-3x1-10-m24" maskUnits="userSpaceOnUse" x="-4000" y="-4000" width="8000" height="8000"><path d="M599.2 326.3L246.1 429.3" stroke="#fff" stroke-width="70"/></mask><mask id="twist-3x1-10-m25" maskUnits="userSpaceOnUse" x="-4000" y="-4000" width="8000" height="8000"><path d="M552.2 227.5L232.7 320.7" stroke="#fff" stroke-width="70"/></mask><mask id="twist-3x1-10-m26" maskUnits="userSpaceOnUse" x="-4000" y="-4000" width="8000" height="8000"><path d="M505.1 128.7L219.3 212.1" stroke="#fff" stroke-width="70"/></mask><mask id="twist-3x1-10-m27" maskUnits="userSpaceOnUse" x="-4000" y="-4000" width="8000" height="8000"><path d="M294.9 471.3L580.7 387.9" stroke="#fff" stroke-width="70"/></mask><mask id="twist-3x1-10-m28" maskUnits="userSpaceOnUse" x="-4000" y="-4000" width="8000" height="8000"><path d="M247.8 372.5L567.3 279.3" stroke="#fff" stroke-width="70"/></mask><mask id="twist-3x1-10-m29" maskUnits="userSpaceOnUse" x="-4000" y="-4000" width="8000" height="8000"><path d="M200.8 273.7L553.9 170.7" stroke="#fff" stroke-width="70"/></mask><mask id="twist-3x1-10-m30" maskUnits="userSpaceOnUse" x="-4000" y="-4000" width="8000" height="8000"><path d="M580.7 387.9L213.2 374.0" stroke="#fff" stroke-width="70"/></mask><mask id="twist-3x1-10-m31" maskUnits="userSpaceOnUse" x="-4000" y="-4000" width="8000" height="8000"><path d="M567.3 279.3L234.8 266.7" stroke="#fff" stroke-width="70"/></mask><mask id="twist-3x1-10-m32" maskUnits="userSpaceOnUse" x="-4000" y="-4000" width="8000" height="8000"><path d="M553.9 170.7L256.4 159.4" stroke="#fff" stroke-width="70"/></mask><mask id="twist-3x1-10-m33" maskUnits="userSpaceOnUse" x="-4000" y="-4000" width="8000" height="8000"><path d="M246.1 429.3L543.6 440.6" stroke="#fff" stroke-width="70"/></mask><mask id="twist-3x1-10-m34" maskUnits="userSpaceOnUse" x="-4000" y="-4000" width="8000" height="8000"><path d="M232.7 320.7L565.2 333.3" stroke="#fff" stroke-width="70"/></mask><mask id="twist-3x1-10-m35" maskUnits="userSpaceOnUse" x="-4000" y="-4000" width="8000" height="8000"><path d="M219.3 212.1L586.8 226.0" stroke="#fff" stroke-width="70"/></mask><mask id="twist-3x1-10-m36" maskUnits="userSpaceOnUse" x="-4000" y="-4000" width="8000" height="8000"><path d="M543.6 440.6L199.4 311.1" stroke="#fff" stroke-width="70"/></mask><mask id="twist-3x1-10-m37" maskUnits="userSpaceOnUse" x="-4000" y="-4000" width="8000" height="8000"><path d="M565.2 333.3L253.8 216.2" stroke="#fff" stroke-width="70"/></mask><mask id="twist-3x1-10-m38" maskUnits="userSpaceOnUse" x="-4000" y="-4000" width="8000" height="8000"><path d="M586.8 226.0L308.2 121.2" stroke="#fff" stroke-width="70"/></mask><mask id="twist-3x1-10-m39" maskUnits="userSpaceOnUse" x="-4000" y="-4000" width="8000" height="8000"><path d="M213.2 374.0L491.8 478.8" stroke="#fff" stroke-width="70"/></mask><mask id="twist-3x1-10-m40" maskUnits="userSpaceOnUse" x="-4000" y="-4000" width="8000" height="8000"><path d="M234.8 266.7L546.2 383.8" stroke="#fff" stroke-width="70"/></mask><mask id="twist-3x1-10-m41" maskUnits="userSpaceOnUse" x="-4000" y="-4000" width="8000" height="8000"><path d="M256.4 159.4L600.6 288.9" stroke="#fff" stroke-width="70"/></mask><mask id="twist-3x1-10-m42" maskUnits="userSpaceOnUse" x="-4000" y="-4000" width="8000" height="8000"><path d="M491.8 478.8L206.1 247.1" stroke="#fff" stroke-width="70"/></mask><mask id="twist-3x1-10-m43" maskUnits="userSpaceOnUse" x="-4000" y="-4000" width="8000" height="8000"><path d="M546.2 383.8L287.8 174.2" stroke="#fff" stroke-width="70"/></mask><mask id="twist-3x1-10-m44" maskUnits="userSpaceOnUse" x="-4000" y="-4000" width="8000" height="8000"><path d="M600.6 288.9L369.4 101.4" stroke="#fff" stroke-width="70"/></mask><mask id="twist-3x1-10-m45" maskUnits="userSpaceOnUse" x="-4000" y="-4000" width="8000" height="8000"><path d="M199.4 311.1L430.6 498.6" stroke="#fff" stroke-width="70"/></mask><mask id="twist-3x1-10-m46" maskUnits="userSpaceOnUse" x="-4000" y="-4000" width="8000" height="8000"><path d="M253.8 216.2L512.2 425.8" stroke="#fff" stroke-width="70"/></mask><mask id="twist-3x1-10-m47" maskUnits="userSpaceOnUse" x="-4000" y="-4000" width="8000" height="8000"><path d="M308.2 121.2L593.9 352.9" stroke="#fff" stroke-width="70"/></mask><mask id="twist-3x1-10-m48" maskUnits="userSpaceOnUse" x="-4000" y="-4000" width="8000" height="8000"><path d="M430.6 498.6L232.8 188.5" stroke="#fff" stroke-width="70"/></mask><mask id="twist-3x1-10-m49" maskUnits="userSpaceOnUse" x="-4000" y="-4000" width="8000" height="8000"><path d="M512.2 425.8L333.3 145.2" stroke="#fff" stroke-width="70"/></mask><mask id="twist-3x1-10-m50" maskUnits="userSpaceOnUse" x="-4000" y="-4000" width="8000" height="8000"><path d="M593.9 352.9L433.8 101.9" stroke="#fff" stroke-width="70"/></mask><mask id="twist-3x1-10-m51" maskUnits="userSpaceOnUse" x="-4000" y="-4000" width="8000" height="8000"><path d="M206.1 247.1L366.2 498.1" stroke="#fff" stroke-width="70"/></mask><mask id="twist-3x1-10-m52" maskUnits="userSpaceOnUse" x="-4000" y="-4000" width="8000" height="8000"><path d="M287.8 174.2L466.7 454.8" stroke="#fff" stroke-width="70"/></mask><mask id="twist-3x1-10-m53" maskUnits="userSpaceOnUse" x="-4000" y="-4000" width="8000" height="8000"><path d="M369.4 101.4L567.2 411.5" stroke="#fff" stroke-width="70"/></mask><mask id="twist-3x1-10-m54" maskUnits="userSpaceOnUse" x="-4000" y="-4000" width="8000" height="8000"><path d="M366.2 498.1L276.7 141.3" stroke="#fff" stroke-width="70"/></mask><mask id="twist-3x1-10-m55" maskUnits="userSpaceOnUse" x="-4000" y="-4000" width="8000" height="8000"><path d="M466.7 454.8L385.7 132.1" stroke="#fff" stroke-width="70"/></mask><mask id="twist-3x1-10-m56" maskUnits="userSpaceOnUse" x="-4000" y="-4000" width="8000" height="8000"><path d="M567.2 411.5L494.7 122.8" stroke="#fff" stroke-width="70"/></mask><mask id="twist-3x1-10-m57" maskUnits="userSpaceOnUse" x="-4000" y="-4000" width="8000" height="8000"><path d="M232.8 188.5L305.3 477.2" stroke="#fff" stroke-width="70"/></mask><mask id="twist-3x1-10-m58" maskUnits="userSpaceOnUse" x="-4000" y="-4000" width="8000" height="8000"><path d="M333.3 145.2L414.3 467.9" stroke="#fff" stroke-width="70"/></mask><mask id="twist-3x1-10-m59" maskUnits="userSpaceOnUse" x="-4000" y="-4000" width="8000" height="8000"><path d="M433.8 101.9L523.3 458.7" stroke="#fff" stroke-width="70"/></mask><mask id="twist-3x1-10-m60" maskUnits="userSpaceOnUse" x="-4000" y="-4000" width="8000" height="8000"><path d="M305.3 477.2L344.2 -35.1" stroke="#fff" stroke-width="70"/></mask><mask id="twist-3x1-10-m61" maskUnits="userSpaceOnUse" x="-4000" y="-4000" width="8000" height="8000"><path d="M414.3 467.9L451.9 -26.9" stroke="#fff" stroke-width="70"/></mask><mask id="twist-3x1-10-m62" maskUnits="userSpaceOnUse" x="-4000" y="-4000" width="8000" height="8000"><path d="M523.3 458.7L559.6 -18.7" stroke="#fff" stroke-width="70"/></mask><mask id="twist-3x1-10-m63" maskUnits="userSpaceOnUse" x="-4000" y="-4000" width="8000" height="8000"><path d="M276.7 141.3L240.4 618.7" stroke="#fff" stroke-width="70"/></mask><mask id="twist-3x1-10-m64" maskUnits="userSpaceOnUse" x="-4000" y="-4000" width="8000" height="8000"><path d="M385.7 132.1L348.1 626.9" stroke="#fff" stroke-width="70"/></mask><mask id="twist-3x1-10-m65" maskUnits="userSpaceOnUse" x="-4000" y="-4000" width="8000" height="8000"><path d="M494.7 122.8L455.8 635.1" stroke="#fff" stroke-width="70"/></mask><g id="weave-twist-3x1-10" fill="none" stroke-linecap="round" stroke-linejoin="round"><g transform="matrix(0.94 -0.188 0.342 0.517 0 0)"><g><path d="M589.0 273.0L211.0 327.0" stroke="#1e1e1e" stroke-width="64"/><path d="M589.0 273.0L211.0 327.0" stroke="#e27a26" stroke-width="54"/></g><g><path d="M481.0 219.0L535.0 381.0" stroke="#1e1e1e" stroke-width="64"/><path d="M481.0 219.0L535.0 381.0" stroke="#f5c837" stroke-width="54"/></g><g><path d="M373.0 219.0L427.0 381.0" stroke="#1e1e1e" stroke-width="64"/><path d="M373.0 219.0L427.0 381.0" stroke="#3caaaf" stroke-width="54"/></g><g><path d="M265.0 219.0L319.0 381.0" stroke="#1e1e1e" stroke-width="64"/><path d="M265.0 219.0L319.0 381.0" stroke="#f0f0f0" stroke-width="54"/></g><g><path d="M211.0 327.0L566.4 327.0" stroke="#1e1e1e" stroke-width="64"/><path d="M211.0 327.0L566.4 327.0" stroke="#e27a26" stroke-width="54"/></g><g><path d="M589.0 273.0L233.6 273.0" stroke="#1e1e1e" stroke-width="64"/><path d="M589.0 273.0L233.6 273.0" stroke="#e27a26" stroke-width="54"/></g><g><path d="M535.0 381.0L535.0 151.1" stroke="#1e1e1e" stroke-width="64"/><path d="M535.0 381.0L535.0 151.1" stroke="#f5c837" stroke-width="54"/></g><g><path d="M481.0 219.0L481.0 483.9" stroke="#1e1e1e" stroke-width="64"/><path d="M481.0 219.0L481.0 483.9" stroke="#f5c837" stroke-width="54"/></g><g><path d="M427.0 381.0L427.0 133.6" stroke="#1e1e1e" stroke-width="64"/><path d="M427.0 381.0L427.0 133.6" stroke="#3caaaf" stroke-width="54"/></g><g><path d="M373.0 219.0L373.0 466.4" stroke="#1e1e1e" stroke-width="64"/><path d="M373.0 219.0L373.0 466.4" stroke="#3caaaf" stroke-width="54"/></g><g><path d="M319.0 381.0L319.0 116.1" stroke="#1e1e1e" stroke-width="64"/><path d="M319.0 381.0L319.0 116.1" stroke="#f0f0f0" stroke-width="54"/></g><g><path d="M265.0 219.0L265.0 448.9" stroke="#1e1e1e" stroke-width="64"/><path d="M265.0 219.0L265.0 448.9" stroke="#f0f0f0" stroke-width="54"/></g><g mask="url(#twist-3x1-10-m0)"><path d="M211.0 327.0L566.4 327.0" stroke="#1e1e1e" stroke-width="64"/><path d="M211.0 327.0L566.4 327.0" stroke="#e27a26" stroke-width="54"/></g><g mask="url(#twist-3x1-10-m1)"><path d="M211.0 327.0L566.4 327.0" stroke="#1e1e1e" stroke-width="64"/><path d="M211.0 327.0L566.4 327.0" stroke="#e27a26" stroke-width="54"/></g><g mask="url(#twist-3x1-10-m2)"><path d="M211.0 327.0L566.4 327.0" stroke="#1e1e1e" stroke-width="64"/><path d="M211.0 327.0L566.4 327.0" stroke="#e27a26" stroke-width="54"/></g><g mask="url(#twist-3x1-10-m3)"><path d="M589.0 273.0L233.6 273.0" stroke="#1e1e1e" stroke-width="64"/><path d="M589.0 273.0L233.6 273.0" stroke="#e27a26" stroke-width="54"/></g><g mask="url(#twist-3x1-10-m4)"><path d="M589.0 273.0L233.6 273.0" stroke="#1e1e1e" stroke-width="64"/><path d="M589.0 273.0L233.6 273.0" stroke="#e27a26" stroke-width="54"/></g><g mask="url(#twist-3x1-10-m5)"><path d="M589.0 273.0L233.6 273.0" stroke="#1e1e1e" stroke-width="64"/><path d="M589.0 273.0L233.6 273.0" stroke="#e27a26" stroke-width="54"/></g></g><g transform="matrix(0.94 -0.188 0.342 0.517 0 -26)"><g><path d="M233.6 273.0L549.3 378.2" stroke="#1e1e1e" stroke-width="64"/><path d="M233.6 273.0L549.3 378.2" stroke="#e27a26" stroke-width="54"/></g><g><path d="M566.4 327.0L250.7 221.8" stroke="#1e1e1e" stroke-width="64"/><path d="M566.4 327.0L250.7 221.8" stroke="#e27a26" stroke-width="54"/></g><g><path d="M481.0 483.9L575.1 201.5" stroke="#1e1e1e" stroke-width="64"/><path d="M481.0 483.9L575.1 201.5" stroke="#f5c837" stroke-width="54"/></g><g><path d="M535.0 151.1L418.7 500.1" stroke="#1e1e1e" stroke-width="64"/><path d="M535.0 151.1L418.7 500.1" stroke="#f5c837" stroke-width="54"/></g><g><path d="M373.0 466.4L478.2 150.7" stroke="#1e1e1e" stroke-width="64"/><path d="M373.0 466.4L478.2 150.7" stroke="#3caaaf" stroke-width="54"/></g><g><path d="M427.0 133.6L321.8 449.3" stroke="#1e1e1e" stroke-width="64"/><path d="M427.0 133.6L321.8 449.3" stroke="#3caaaf" stroke-width="54"/></g><g><path d="M265.0 448.9L381.3 99.9" stroke="#1e1e1e" stroke-width="64"/><path d="M265.0 448.9L381.3 99.9" stroke="#f0f0f0" stroke-width="54"/></g><g><path d="M319.0 116.1L224.9 398.5" stroke="#1e1e1e" stroke-width="64"/><path d="M319.0 116.1L224.9 398.5" stroke="#f0f0f0" stroke-width="54"/></g><g mask="url(#twist-3x1-10-m6)"><path d="M233.6 273.0L549.3 378.2" stroke="#1e1e1e" stroke-width="64"/><path d="M233.6 273.0L549.3 378.2" stroke="#e27a26" stroke-width="54"/></g><g mask="url(#twist-3x1-10-m7)"><path d="M233.6 273.0L549.3 378.2" stroke="#1e1e1e" stroke-width="64"/><path d="M233.6 273.0L549.3 378.2" stroke="#e27a26" stroke-width="54"/></g><g mask="url(#twist-3x1-10-m8)"><path d="M233.6 273.0L549.3 378.2" stroke="#1e1e1e" stroke-width="64"/><path d="M233.6 273.0L549.3 378.2" stroke="#e27a26" stroke-width="54"/></g><g mask="url(#twist-3x1-10-m9)"><path d="M566.4 327.0L250.7 221.8" stroke="#1e1e1e" stroke-width="64"/><path d="M566.4 327.0L250.7 221.8" stroke="#e27a26" stroke-width="54"/></g><g mask="url(#twist-3x1-10-m10)"><path d="M566.4 327.0L250.7 221.8" stroke="#1e1e1e" stroke-width="64"/><path d="M566.4 327.0L250.7 221.8" stroke="#e27a26" stroke-width="54"/></g><g mask="url(#twist-3x1-10-m11)"><path d="M566.4 327.0L250.7 221.8" stroke="#1e1e1e" stroke-width="64"/><path d="M566.4 327.0L250.7 221.8" stroke="#e27a26" stroke-width="54"/></g></g><g transform="matrix(0.94 -0.188 0.342 0.517 0 -52)"><g><path d="M250.7 221.8L516.9 421.4" stroke="#1e1e1e" stroke-width="64"/><path d="M250.7 221.8L516.9 421.4" stroke="#e27a26" stroke-width="54"/></g><g><path d="M549.3 378.2L283.1 178.6" stroke="#1e1e1e" stroke-width="64"/><path d="M549.3 378.2L283.1 178.6" stroke="#e27a26" stroke-width="54"/></g><g><path d="M418.7 500.1L597.3 261.9" stroke="#1e1e1e" stroke-width="64"/><path d="M418.7 500.1L597.3 261.9" stroke="#f5c837" stroke-width="54"/></g><g><path d="M575.1 201.5L354.5 495.7" stroke="#1e1e1e" stroke-width="64"/><path d="M575.1 201.5L354.5 495.7" stroke="#f5c837" stroke-width="54"/></g><g><path d="M321.8 449.3L521.4 183.1" stroke="#1e1e1e" stroke-width="64"/><path d="M321.8 449.3L521.4 183.1" stroke="#3caaaf" stroke-width="54"/></g><g><path d="M478.2 150.7L278.6 416.9" stroke="#1e1e1e" stroke-width="64"/><path d="M478.2 150.7L278.6 416.9" stroke="#3caaaf" stroke-width="54"/></g><g><path d="M224.9 398.5L445.5 104.3" stroke="#1e1e1e" stroke-width="64"/><path d="M224.9 398.5L445.5 104.3" stroke="#f0f0f0" stroke-width="54"/></g><g><path d="M381.3 99.9L202.7 338.1" stroke="#1e1e1e" stroke-width="64"/><path d="M381.3 99.9L202.7 338.1" stroke="#f0f0f0" stroke-width="54"/></g><g mask="url(#twist-3x1-10-m12)"><path d="M250.7 221.8L516.9 421.4" stroke="#1e1e1e" stroke-width="64"/><path d="M250.7 221.8L516.9 421.4" stroke="#e27a26" stroke-width="54"/></g><g mask="url(#twist-3x1-10-m13)"><path d="M250.7 221.8L516.9 421.4" stroke="#1e1e1e" stroke-width="64"/><path d="M250.7 221.8L516.9 421.4" stroke="#e27a26" stroke-width="54"/></g><g mask="url(#twist-3x1-10-m14)"><path d="M250.7 221.8L516.9 421.4" stroke="#1e1e1e" stroke-width="64"/><path d="M250.7 221.8L516.9 421.4" stroke="#e27a26" stroke-width="54"/></g><g mask="url(#twist-3x1-10-m15)"><path d="M549.3 378.2L283.1 178.6" stroke="#1e1e1e" stroke-width="64"/><path d="M549.3 378.2L283.1 178.6" stroke="#e27a26" stroke-width="54"/></g><g mask="url(#twist-3x1-10-m16)"><path d="M549.3 378.2L283.1 178.6" stroke="#1e1e1e" stroke-width="64"/><path d="M549.3 378.2L283.1 178.6" stroke="#e27a26" stroke-width="54"/></g><g mask="url(#twist-3x1-10-m17)"><path d="M549.3 378.2L283.1 178.6" stroke="#1e1e1e" stroke-width="64"/><path d="M549.3 378.2L283.1 178.6" stroke="#e27a26" stroke-width="54"/></g></g><g transform="matrix(0.94 -0.188 0.342 0.517 0 -78)"><g><path d="M283.1 178.6L472.5 452.2" stroke="#1e1e1e" stroke-width="64"/><path d="M283.1 178.6L472.5 452.2" stroke="#e27a26" stroke-width="54"/></g><g><path d="M516.9 421.4L327.5 147.8" stroke="#1e1e1e" stroke-width="64"/><path d="M516.9 421.4L327.5 147.8" stroke="#e27a26" stroke-width="54"/></g><g><path d="M354.5 495.7L599.2 326.3" stroke="#1e1e1e" stroke-width="64"/><path d="M354.5 495.7L599.2 326.3" stroke="#f5c837" stroke-width="54"/></g><g><path d="M597.3 261.9L294.9 471.3" stroke="#1e1e1e" stroke-width="64"/><path d="M597.3 261.9L294.9 471.3" stroke="#f5c837" stroke-width="54"/></g><g><path d="M278.6 416.9L552.2 227.5" stroke="#1e1e1e" stroke-width="64"/><path d="M278.6 416.9L552.2 227.5" stroke="#3caaaf" stroke-width="54"/></g><g><path d="M521.4 183.1L247.8 372.5" stroke="#1e1e1e" stroke-width="64"/><path d="M521.4 183.1L247.8 372.5" stroke="#3caaaf" stroke-width="54"/></g><g><path d="M202.7 338.1L505.1 128.7" stroke="#1e1e1e" stroke-width="64"/><path d="M202.7 338.1L505.1 128.7" stroke="#f0f0f0" stroke-width="54"/></g><g><path d="M445.5 104.3L200.8 273.7" stroke="#1e1e1e" stroke-width="64"/><path d="M445.5 104.3L200.8 273.7" stroke="#f0f0f0" stroke-width="54"/></g><g mask="url(#twist-3x1-10-m18)"><path d="M283.1 178.6L472.5 452.2" stroke="#1e1e1e" stroke-width="64"/><path d="M283.1 178.6L472.5 452.2" stroke="#e27a26" stroke-width="54"/></g><g mask="url(#twist-3x1-10-m19)"><path d="M283.1 178.6L472.5 452.2" stroke="#1e1e1e" stroke-width="64"/><path d="M283.1 178.6L472.5 452.2" stroke="#e27a26" stroke-width="54"/></g><g mask="url(#twist-3x1-10-m20)"><path d="M283.1 178.6L472.5 452.2" stroke="#1e1e1e" stroke-width="64"/><path d="M283.1 178.6L472.5 452.2" stroke="#e27a26" stroke-width="54"/></g><g mask="url(#twist-3x1-10-m21)"><path d="M516.9 421.4L327.5 147.8" stroke="#1e1e1e" stroke-width="64"/><path d="M516.9 421.4L327.5 147.8" stroke="#e27a26" stroke-width="54"/></g><g mask="url(#twist-3x1-10-m22)"><path d="M516.9 421.4L327.5 147.8" stroke="#1e1e1e" stroke-width="64"/><path d="M516.9 421.4L327.5 147.8" stroke="#e27a26" stroke-width="54"/></g><g mask="url(#twist-3x1-10-m23)"><path d="M516.9 421.4L327.5 147.8" stroke="#1e1e1e" stroke-width="64"/><path d="M516.9 421.4L327.5 147.8" stroke="#e27a26" stroke-width="54"/></g></g><g transform="matrix(0.94 -0.188 0.342 0.517 0 -104)"><g><path d="M327.5 147.8L420.7 467.3" stroke="#1e1e1e" stroke-width="64"/><path d="M327.5 147.8L420.7 467.3" stroke="#e27a26" stroke-width="54"/></g><g><path d="M472.5 452.2L379.3 132.7" stroke="#1e1e1e" stroke-width="64"/><path d="M472.5 452.2L379.3 132.7" stroke="#e27a26" stroke-width="54"/></g><g><path d="M294.9 471.3L580.7 387.9" stroke="#1e1e1e" stroke-width="64"/><path d="M294.9 471.3L580.7 387.9" stroke="#f5c837" stroke-width="54"/></g><g><path d="M599.2 326.3L246.1 429.3" stroke="#1e1e1e" stroke-width="64"/><path d="M599.2 326.3L246.1 429.3" stroke="#f5c837" stroke-width="54"/></g><g><path d="M247.8 372.5L567.3 279.3" stroke="#1e1e1e" stroke-width="64"/><path d="M247.8 372.5L567.3 279.3" stroke="#3caaaf" stroke-width="54"/></g><g><path d="M552.2 227.5L232.7 320.7" stroke="#1e1e1e" stroke-width="64"/><path d="M552.2 227.5L232.7 320.7" stroke="#3caaaf" stroke-width="54"/></g><g><path d="M200.8 273.7L553.9 170.7" stroke="#1e1e1e" stroke-width="64"/><path d="M200.8 273.7L553.9 170.7" stroke="#f0f0f0" stroke-width="54"/></g><g><path d="M505.1 128.7L219.3 212.1" stroke="#1e1e1e" stroke-width="64"/><path d="M505.1 128.7L219.3 212.1" stroke="#f0f0f0" stroke-width="54"/></g><g mask="url(#twist-3x1-10-m24)"><path d="M327.5 147.8L420.7 467.3" stroke="#1e1e1e" stroke-width="64"/><path d="M327.5 147.8L420.7 467.3" stroke="#e27a26" stroke-width="54"/></g><g mask="url(#twist-3x1-10-m25)"><path d="M327.5 147.8L420.7 467.3" stroke="#1e1e1e" stroke-width="64"/><path d="M327.5 147.8L420.7 467.3" stroke="#e27a26" stroke-width="54"/></g><g mask="url(#twist-3x1-10-m26)"><path d="M327.5 147.8L420.7 467.3" stroke="#1e1e1e" stroke-width="64"/><path d="M327.5 147.8L420.7 467.3" stroke="#e27a26" stroke-width="54"/></g><g mask="url(#twist-3x1-10-m27)"><path d="M472.5 452.2L379.3 132.7" stroke="#1e1e1e" stroke-width="64"/><path d="M472.5 452.2L379.3 132.7" stroke="#e27a26" stroke-width="54"/></g><g mask="url(#twist-3x1-10-m28)"><path d="M472.5 452.2L379.3 132.7" stroke="#1e1e1e" stroke-width="64"/><path d="M472.5 452.2L379.3 132.7" stroke="#e27a26" stroke-width="54"/></g><g mask="url(#twist-3x1-10-m29)"><path d="M472.5 452.2L379.3 132.7" stroke="#1e1e1e" stroke-width="64"/><path d="M472.5 452.2L379.3 132.7" stroke="#e27a26" stroke-width="54"/></g></g><g transform="matrix(0.94 -0.188 0.342 0.517 0 -130)"><g><path d="M379.3 132.7L366.7 465.2" stroke="#1e1e1e" stroke-width="64"/><path d="M379.3 132.7L366.7 465.2" stroke="#e27a26" stroke-width="54"/></g><g><path d="M420.7 467.3L433.3 134.8" stroke="#1e1e1e" stroke-width="64"/><path d="M420.7 467.3L433.3 134.8" stroke="#e27a26" stroke-width="54"/></g><g><path d="M246.1 429.3L543.6 440.6" stroke="#1e1e1e" stroke-width="64"/><path d="M246.1 429.3L543.6 440.6" stroke="#f5c837" stroke-width="54"/></g><g><path d="M580.7 387.9L213.2 374.0" stroke="#1e1e1e" stroke-width="64"/><path d="M580.7 387.9L213.2 374.0" stroke="#f5c837" stroke-width="54"/></g><g><path d="M232.7 320.7L565.2 333.3" stroke="#1e1e1e" stroke-width="64"/><path d="M232.7 320.7L565.2 333.3" stroke="#3caaaf" stroke-width="54"/></g><g><path d="M567.3 279.3L234.8 266.7" stroke="#1e1e1e" stroke-width="64"/><path d="M567.3 279.3L234.8 266.7" stroke="#3caaaf" stroke-width="54"/></g><g><path d="M219.3 212.1L586.8 226.0" stroke="#1e1e1e" stroke-width="64"/><path d="M219.3 212.1L586.8 226.0" stroke="#f0f0f0" stroke-width="54"/></g><g><path d="M553.9 170.7L256.4 159.4" stroke="#1e1e1e" stroke-width="64"/><path d="M553.9 170.7L256.4 159.4" stroke="#f0f0f0" stroke-width="54"/></g><g mask="url(#twist-3x1-10-m30)"><path d="M379.3 132.7L366.7 465.2" stroke="#1e1e1e" stroke-width="64"/><path d="M379.3 132.7L366.7 465.2" stroke="#e27a26" stroke-width="54"/></g><g mask="url(#twist-3x1-10-m31)"><path d="M379.3 132.7L366.7 465.2" stroke="#1e1e1e" stroke-width="64"/><path d="M379.3 132.7L366.7 465.2" stroke="#e27a26" stroke-width="54"/></g><g mask="url(#twist-3x1-10-m32)"><path d="M379.3 132.7L366.7 465.2" stroke="#1e1e1e" stroke-width="64"/><path d="M379.3 132.7L366.7 465.2" stroke="#e27a26" stroke-width="54"/></g><g mask="url(#twist-3x1-10-m33)"><path d="M420.7 467.3L433.3 134.8" stroke="#1e1e1e" stroke-width="64"/><path d="M420.7 467.3L433.3 134.8" stroke="#e27a26" stroke-width="54"/></g><g mask="url(#twist-3x1-10-m34)"><path d="M420.7 467.3L433.3 134.8" stroke="#1e1e1e" stroke-width="64"/><path d="M420.7 467.3L433.3 134.8" stroke="#e27a26" stroke-width="54"/></g><g mask="url(#twist-3x1-10-m35)"><path d="M420.7 467.3L433.3 134.8" stroke="#1e1e1e" stroke-width="64"/><path d="M420.7 467.3L433.3 134.8" stroke="#e27a26" stroke-width="54"/></g></g><g transform="matrix(0.94 -0.188 0.342 0.517 0 -156)"><g><path d="M433.3 134.8L316.2 446.2" stroke="#1e1e1e" stroke-width="64"/><path d="M433.3 134.8L316.2 446.2" stroke="#e27a26" stroke-width="54"/></g><g><path d="M366.7 465.2L483.8 153.8" stroke="#1e1e1e" stroke-width="64"/><path d="M366.7 465.2L483.8 153.8" stroke="#e27a26" stroke-width="54"/></g><g><path d="M213.2 374.0L491.8 478.8" stroke="#1e1e1e" stroke-width="64"/><path d="M213.2 374.0L491.8 478.8" stroke="#f5c837" stroke-width="54"/></g><g><path d="M543.6 440.6L199.4 311.1" stroke="#1e1e1e" stroke-width="64"/><path d="M543.6 440.6L199.4 311.1" stroke="#f5c837" stroke-width="54"/></g><g><path d="M234.8 266.7L546.2 383.8" stroke="#1e1e1e" stroke-width="64"/><path d="M234.8 266.7L546.2 383.8" stroke="#3caaaf" stroke-width="54"/></g><g><path d="M565.2 333.3L253.8 216.2" stroke="#1e1e1e" stroke-width="64"/><path d="M565.2 333.3L253.8 216.2" stroke="#3caaaf" stroke-width="54"/></g><g><path d="M256.4 159.4L600.6 288.9" stroke="#1e1e1e" stroke-width="64"/><path d="M256.4 159.4L600.6 288.9" stroke="#f0f0f0" stroke-width="54"/></g><g><path d="M586.8 226.0L308.2 121.2" stroke="#1e1e1e" stroke-width="64"/><path d="M586.8 226.0L308.2 121.2" stroke="#f0f0f0" stroke-width="54"/></g><g mask="url(#twist-3x1-10-m36)"><path d="M433.3 134.8L316.2 446.2" stroke="#1e1e1e" stroke-width="64"/><path d="M433.3 134.8L316.2 446.2" stroke="#e27a26" stroke-width="54"/></g><g mask="url(#twist-3x1-10-m37)"><path d="M433.3 134.8L316.2 446.2" stroke="#1e1e1e" stroke-width="64"/><path d="M433.3 134.8L316.2 446.2" stroke="#e27a26" stroke-width="54"/></g><g mask="url(#twist-3x1-10-m38)"><path d="M433.3 134.8L316.2 446.2" stroke="#1e1e1e" stroke-width="64"/><path d="M433.3 134.8L316.2 446.2" stroke="#e27a26" stroke-width="54"/></g><g mask="url(#twist-3x1-10-m39)"><path d="M366.7 465.2L483.8 153.8" stroke="#1e1e1e" stroke-width="64"/><path d="M366.7 465.2L483.8 153.8" stroke="#e27a26" stroke-width="54"/></g><g mask="url(#twist-3x1-10-m40)"><path d="M366.7 465.2L483.8 153.8" stroke="#1e1e1e" stroke-width="64"/><path d="M366.7 465.2L483.8 153.8" stroke="#e27a26" stroke-width="54"/></g><g mask="url(#twist-3x1-10-m41)"><path d="M366.7 465.2L483.8 153.8" stroke="#1e1e1e" stroke-width="64"/><path d="M366.7 465.2L483.8 153.8" stroke="#e27a26" stroke-width="54"/></g></g><g transform="matrix(0.94 -0.188 0.342 0.517 0 -182)"><g><path d="M483.8 153.8L274.2 412.2" stroke="#1e1e1e" stroke-width="64"/><path d="M483.8 153.8L274.2 412.2" stroke="#e27a26" stroke-width="54"/></g><g><path d="M316.2 446.2L525.8 187.8" stroke="#1e1e1e" stroke-width="64"/><path d="M316.2 446.2L525.8 187.8" stroke="#e27a26" stroke-width="54"/></g><g><path d="M199.4 311.1L430.6 498.6" stroke="#1e1e1e" stroke-width="64"/><path d="M199.4 311.1L430.6 498.6" stroke="#f5c837" stroke-width="54"/></g><g><path d="M491.8 478.8L206.1 247.1" stroke="#1e1e1e" stroke-width="64"/><path d="M491.8 478.8L206.1 247.1" stroke="#f5c837" stroke-width="54"/></g><g><path d="M253.8 216.2L512.2 425.8" stroke="#1e1e1e" stroke-width="64"/><path d="M253.8 216.2L512.2 425.8" stroke="#3caaaf" stroke-width="54"/></g><g><path d="M546.2 383.8L287.8 174.2" stroke="#1e1e1e" stroke-width="64"/><path d="M546.2 383.8L287.8 174.2" stroke="#3caaaf" stroke-width="54"/></g><g><path d="M308.2 121.2L593.9 352.9" stroke="#1e1e1e" stroke-width="64"/><path d="M308.2 121.2L593.9 352.9" stroke="#f0f0f0" stroke-width="54"/></g><g><path d="M600.6 288.9L369.4 101.4" stroke="#1e1e1e" stroke-width="64"/><path d="M600.6 288.9L369.4 101.4" stroke="#f0f0f0" stroke-width="54"/></g><g mask="url(#twist-3x1-10-m42)"><path d="M483.8 153.8L274.2 412.2" stroke="#1e1e1e" stroke-width="64"/><path d="M483.8 153.8L274.2 412.2" stroke="#e27a26" stroke-width="54"/></g><g mask="url(#twist-3x1-10-m43)"><path d="M483.8 153.8L274.2 412.2" stroke="#1e1e1e" stroke-width="64"/><path d="M483.8 153.8L274.2 412.2" stroke="#e27a26" stroke-width="54"/></g><g mask="url(#twist-3x1-10-m44)"><path d="M483.8 153.8L274.2 412.2" stroke="#1e1e1e" stroke-width="64"/><path d="M483.8 153.8L274.2 412.2" stroke="#e27a26" stroke-width="54"/></g><g mask="url(#twist-3x1-10-m45)"><path d="M316.2 446.2L525.8 187.8" stroke="#1e1e1e" stroke-width="64"/><path d="M316.2 446.2L525.8 187.8" stroke="#e27a26" stroke-width="54"/></g><g mask="url(#twist-3x1-10-m46)"><path d="M316.2 446.2L525.8 187.8" stroke="#1e1e1e" stroke-width="64"/><path d="M316.2 446.2L525.8 187.8" stroke="#e27a26" stroke-width="54"/></g><g mask="url(#twist-3x1-10-m47)"><path d="M316.2 446.2L525.8 187.8" stroke="#1e1e1e" stroke-width="64"/><path d="M316.2 446.2L525.8 187.8" stroke="#e27a26" stroke-width="54"/></g></g><g transform="matrix(0.94 -0.188 0.342 0.517 0 -208)"><g><path d="M525.8 187.8L245.2 366.7" stroke="#1e1e1e" stroke-width="64"/><path d="M525.8 187.8L245.2 366.7" stroke="#e27a26" stroke-width="54"/></g><g><path d="M274.2 412.2L554.8 233.3" stroke="#1e1e1e" stroke-width="64"/><path d="M274.2 412.2L554.8 233.3" stroke="#e27a26" stroke-width="54"/></g><g><path d="M206.1 247.1L366.2 498.1" stroke="#1e1e1e" stroke-width="64"/><path d="M206.1 247.1L366.2 498.1" stroke="#f5c837" stroke-width="54"/></g><g><path d="M430.6 498.6L232.8 188.5" stroke="#1e1e1e" stroke-width="64"/><path d="M430.6 498.6L232.8 188.5" stroke="#f5c837" stroke-width="54"/></g><g><path d="M287.8 174.2L466.7 454.8" stroke="#1e1e1e" stroke-width="64"/><path d="M287.8 174.2L466.7 454.8" stroke="#3caaaf" stroke-width="54"/></g><g><path d="M512.2 425.8L333.3 145.2" stroke="#1e1e1e" stroke-width="64"/><path d="M512.2 425.8L333.3 145.2" stroke="#3caaaf" stroke-width="54"/></g><g><path d="M369.4 101.4L567.2 411.5" stroke="#1e1e1e" stroke-width="64"/><path d="M369.4 101.4L567.2 411.5" stroke="#f0f0f0" stroke-width="54"/></g><g><path d="M593.9 352.9L433.8 101.9" stroke="#1e1e1e" stroke-width="64"/><path d="M593.9 352.9L433.8 101.9" stroke="#f0f0f0" stroke-width="54"/></g><g mask="url(#twist-3x1-10-m48)"><path d="M525.8 187.8L245.2 366.7" stroke="#1e1e1e" stroke-width="64"/><path d="M525.8 187.8L245.2 366.7" stroke="#e27a26" stroke-width="54"/></g><g mask="url(#twist-3x1-10-m49)"><path d="M525.8 187.8L245.2 366.7" stroke="#1e1e1e" stroke-width="64"/><path d="M525.8 187.8L245.2 366.7" stroke="#e27a26" stroke-width="54"/></g><g mask="url(#twist-3x1-10-m50)"><path d="M525.8 187.8L245.2 366.7" stroke="#1e1e1e" stroke-width="64"/><path d="M525.8 187.8L245.2 366.7" stroke="#e27a26" stroke-width="54"/></g><g mask="url(#twist-3x1-10-m51)"><path d="M274.2 412.2L554.8 233.3" stroke="#1e1e1e" stroke-width="64"/><path d="M274.2 412.2L554.8 233.3" stroke="#e27a26" stroke-width="54"/></g><g mask="url(#twist-3x1-10-m52)"><path d="M274.2 412.2L554.8 233.3" stroke="#1e1e1e" stroke-width="64"/><path d="M274.2 412.2L554.8 233.3" stroke="#e27a26" stroke-width="54"/></g><g mask="url(#twist-3x1-10-m53)"><path d="M274.2 412.2L554.8 233.3" stroke="#1e1e1e" stroke-width="64"/><path d="M274.2 412.2L554.8 233.3" stroke="#e27a26" stroke-width="54"/></g></g><g transform="matrix(0.94 -0.188 0.342 0.517 0 -234)"><g><path d="M554.8 233.3L232.1 314.3" stroke="#1e1e1e" stroke-width="64"/><path d="M554.8 233.3L232.1 314.3" stroke="#e27a26" stroke-width="54"/></g><g><path d="M245.2 366.7L567.9 285.7" stroke="#1e1e1e" stroke-width="64"/><path d="M245.2 366.7L567.9 285.7" stroke="#e27a26" stroke-width="54"/></g><g><path d="M232.8 188.5L305.3 477.2" stroke="#1e1e1e" stroke-width="64"/><path d="M232.8 188.5L305.3 477.2" stroke="#f5c837" stroke-width="54"/></g><g><path d="M366.2 498.1L276.7 141.3" stroke="#1e1e1e" stroke-width="64"/><path d="M366.2 498.1L276.7 141.3" stroke="#f5c837" stroke-width="54"/></g><g><path d="M333.3 145.2L414.3 467.9" stroke="#1e1e1e" stroke-width="64"/><path d="M333.3 145.2L414.3 467.9" stroke="#3caaaf" stroke-width="54"/></g><g><path d="M466.7 454.8L385.7 132.1" stroke="#1e1e1e" stroke-width="64"/><path d="M466.7 454.8L385.7 132.1" stroke="#3caaaf" stroke-width="54"/></g><g><path d="M433.8 101.9L523.3 458.7" stroke="#1e1e1e" stroke-width="64"/><path d="M433.8 101.9L523.3 458.7" stroke="#f0f0f0" stroke-width="54"/></g><g><path d="M567.2 411.5L494.7 122.8" stroke="#1e1e1e" stroke-width="64"/><path d="M567.2 411.5L494.7 122.8" stroke="#f0f0f0" stroke-width="54"/></g><g mask="url(#twist-3x1-10-m54)"><path d="M554.8 233.3L232.1 314.3" stroke="#1e1e1e" stroke-width="64"/><path d="M554.8 233.3L232.1 314.3" stroke="#e27a26" stroke-width="54"/></g><g mask="url(#twist-3x1-10-m55)"><path d="M554.8 233.3L232.1 314.3" stroke="#1e1e1e" stroke-width="64"/><path d="M554.8 233.3L232.1 314.3" stroke="#e27a26" stroke-width="54"/></g><g mask="url(#twist-3x1-10-m56)"><path d="M554.8 233.3L232.1 314.3" stroke="#1e1e1e" stroke-width="64"/><path d="M554.8 233.3L232.1 314.3" stroke="#e27a26" stroke-width="54"/></g><g mask="url(#twist-3x1-10-m57)"><path d="M245.2 366.7L567.9 285.7" stroke="#1e1e1e" stroke-width="64"/><path d="M245.2 366.7L567.9 285.7" stroke="#e27a26" stroke-width="54"/></g><g mask="url(#twist-3x1-10-m58)"><path d="M245.2 366.7L567.9 285.7" stroke="#1e1e1e" stroke-width="64"/><path d="M245.2 366.7L567.9 285.7" stroke="#e27a26" stroke-width="54"/></g><g mask="url(#twist-3x1-10-m59)"><path d="M245.2 366.7L567.9 285.7" stroke="#1e1e1e" stroke-width="64"/><path d="M245.2 366.7L567.9 285.7" stroke="#e27a26" stroke-width="54"/></g></g><g transform="matrix(0.94 -0.188 0.342 0.517 0 -260)"><g><path d="M567.9 285.7L-34.6 239.9" stroke="#1e1e1e" stroke-width="64"/><path d="M567.9 285.7L-34.6 239.9" stroke="#e27a26" stroke-width="54"/></g><g><path d="M232.1 314.3L834.6 360.1" stroke="#1e1e1e" stroke-width="64"/><path d="M232.1 314.3L834.6 360.1" stroke="#e27a26" stroke-width="54"/></g><g><path d="M276.7 141.3L240.4 618.7" stroke="#1e1e1e" stroke-width="64"/><path d="M276.7 141.3L240.4 618.7" stroke="#f5c837" stroke-width="54"/></g><g><path d="M305.3 477.2L344.2 -35.1" stroke="#1e1e1e" stroke-width="64"/><path d="M305.3 477.2L344.2 -35.1" stroke="#f5c837" stroke-width="54"/></g><g><path d="M385.7 132.1L348.1 626.9" stroke="#1e1e1e" stroke-width="64"/><path d="M385.7 132.1L348.1 626.9" stroke="#3caaaf" stroke-width="54"/></g><g><path d="M414.3 467.9L451.9 -26.9" stroke="#1e1e1e" stroke-width="64"/><path d="M414.3 467.9L451.9 -26.9" stroke="#3caaaf" stroke-width="54"/></g><g><path d="M494.7 122.8L455.8 635.1" stroke="#1e1e1e" stroke-width="64"/><path d="M494.7 122.8L455.8 635.1" stroke="#f0f0f0" stroke-width="54"/></g><g><path d="M523.3 458.7L559.6 -18.7" stroke="#1e1e1e" stroke-width="64"/><path d="M523.3 458.7L559.6 -18.7" stroke="#f0f0f0" stroke-width="54"/></g><g mask="url(#twist-3x1-10-m60)"><path d="M567.9 285.7L-34.6 239.9" stroke="#1e1e1e" stroke-width="64"/><path d="M567.9 285.7L-34.6 239.9" stroke="#e27a26" stroke-width="54"/></g><g mask="url(#twist-3x1-10-m61)"><path d="M567.9 285.7L-34.6 239.9" stroke="#1e1e1e" stroke-width="64"/><path d="M567.9 285.7L-34.6 239.9" stroke="#e27a26" stroke-width="54"/></g><g mask="url(#twist-3x1-10-m62)"><path d="M567.9 285.7L-34.6 239.9" stroke="#1e1e1e" stroke-width="64"/><path d="M567.9 285.7L-34.6 239.9" stroke="#e27a26" stroke-width="54"/></g><g mask="url(#twist-3x1-10-m63)"><path d="M232.1 314.3L834.6 360.1" stroke="#1e1e1e" stroke-width="64"/><path d="M232.1 314.3L834.6 360.1" stroke="#e27a26" stroke-width="54"/></g><g mask="url(#twist-3x1-10-m64)"><path d="M232.1 314.3L834.6 360.1" stroke="#1e1e1e" stroke-width="64"/><path d="M232.1 314.3L834.6 360.1" stroke="#e27a26" stroke-width="54"/></g><g mask="url(#twist-3x1-10-m65)"><path d="M232.1 314.3L834.6 360.1" stroke="#1e1e1e" stroke-width="64"/><path d="M232.1 314.3L834.6 360.1" stroke="#e27a26" stroke-width="54"/></g></g></g></defs><use href="#weave-twist-3x1-10" y="9" filter="url(#edge-twist-3x1-10)"/><use href="#weave-twist-3x1-10"/></svg>
