<svg xmlns="http://www.w3.org/2000/svg" viewBox="294.0 -158.6 369.2 441.6" role="img" aria-label="Two-fan stitch — 1×5 LH (clockwise), weft 27.44°, warp 11.26°"><defs><filter id="edge-twofan-lh-1x5" x="-10%" y="-10%" width="120%" height="120%"><feColorMatrix type="matrix" values="0.55 0 0 0 0  0 0.55 0 0 0  0 0 0.55 0 0  0 0 0 1 0"/></filter><mask id="twofan-lh-1x5-m0" maskUnits="userSpaceOnUse" x="-4000" y="-4000" width="8000" height="8000"><path d="M344.0 104.0L569.4 104.0" stroke="#fff" stroke-width="62"/></mask><mask id="twofan-lh-1x5-m1" maskUnits="userSpaceOnUse" x="-4000" y="-4000" width="8000" height="8000"><path d="M456.0 48.0L340.0 48.0" stroke="#fff" stroke-width="62"/></mask><mask id="twofan-lh-1x5-m4" maskUnits="userSpaceOnUse" x="-4000" y="-4000" width="8000" height="8000"><path d="M344.0 216.0L542.0 216.0" stroke="#fff" stroke-width="62"/></mask><mask id="twofan-lh-1x5-m5" maskUnits="userSpaceOnUse" x="-4000" y="-4000" width="8000" height="8000"><path d="M456.0 160.0L312.7 160.0" stroke="#fff" stroke-width="62"/></mask><mask id="twofan-lh-1x5-m8" maskUnits="userSpaceOnUse" x="-4000" y="-4000" width="8000" height="8000"><path d="M344.0 328.0L514.7 328.0" stroke="#fff" stroke-width="62"/></mask><mask id="twofan-lh-1x5-m9" maskUnits="userSpaceOnUse" x="-4000" y="-4000" width="8000" height="8000"><path d="M456.0 272.0L285.3 272.0" stroke="#fff" stroke-width="62"/></mask><mask id="twofan-lh-1x5-m12" maskUnits="userSpaceOnUse" x="-4000" y="-4000" width="8000" height="8000"><path d="M344.0 440.0L487.3 440.0" stroke="#fff" stroke-width="62"/></mask><mask id="twofan-lh-1x5-m13" maskUnits="userSpaceOnUse" x="-4000" y="-4000" width="8000" height="8000"><path d="M456.0 384.0L258.0 384.0" stroke="#fff" stroke-width="62"/></mask><mask id="twofan-lh-1x5-m16" maskUnits="userSpaceOnUse" x="-4000" y="-4000" width="8000" height="8000"><path d="M344.0 552.0L460.0 552.0" stroke="#fff" stroke-width="62"/></mask><mask id="twofan-lh-1x5-m17" maskUnits="userSpaceOnUse" x="-4000" y="-4000" width="8000" height="8000"><path d="M456.0 496.0L230.6 496.0" stroke="#fff" stroke-width="62"/></mask><mask id="twofan-lh-1x5-m2" maskUnits="userSpaceOnUse" x="-4000" y="-4000" width="8000" height="8000"><path d="M569.4 104.0L376.6 3.9" stroke="#fff" stroke-width="62"/></mask><mask id="twofan-lh-1x5-m3" maskUnits="userSpaceOnUse" x="-4000" y="-4000" width="8000" height="8000"><path d="M340.0 48.0L514.5 138.6" stroke="#fff" stroke-width="62"/></mask><mask id="twofan-lh-1x5-m6" maskUnits="userSpaceOnUse" x="-4000" y="-4000" width="8000" height="8000"><path d="M542.0 216.0L353.8 118.3" stroke="#fff" stroke-width="62"/></mask><mask id="twofan-lh-1x5-m7" maskUnits="userSpaceOnUse" x="-4000" y="-4000" width="8000" height="8000"><path d="M312.7 160.0L491.8 253.0" stroke="#fff" stroke-width="62"/></mask><mask id="twofan-lh-1x5-m10" maskUnits="userSpaceOnUse" x="-4000" y="-4000" width="8000" height="8000"><path d="M514.7 328.0L331.0 232.6" stroke="#fff" stroke-width="62"/></mask><mask id="twofan-lh-1x5-m11" maskUnits="userSpaceOnUse" x="-4000" y="-4000" width="8000" height="8000"><path d="M285.3 272.0L469.0 367.4" stroke="#fff" stroke-width="62"/></mask><mask id="twofan-lh-1x5-m14" maskUnits="userSpaceOnUse" x="-4000" y="-4000" width="8000" height="8000"><path d="M487.3 440.0L308.2 347.0" stroke="#fff" stroke-width="62"/></mask><mask id="twofan-lh-1x5-m15" maskUnits="userSpaceOnUse" x="-4000" y="-4000" width="8000" height="8000"><path d="M258.0 384.0L446.2 481.7" stroke="#fff" stroke-width="62"/></mask><mask id="twofan-lh-1x5-m18" maskUnits="userSpaceOnUse" x="-4000" y="-4000" width="8000" height="8000"><path d="M460.0 552.0L285.5 461.4" stroke="#fff" stroke-width="62"/></mask><mask id="twofan-lh-1x5-m19" maskUnits="userSpaceOnUse" x="-4000" y="-4000" width="8000" height="8000"><path d="M230.6 496.0L423.4 596.1" stroke="#fff" stroke-width="62"/></mask><g id="weave-twofan-lh-1x5" fill="none" stroke-linecap="round" stroke-linejoin="round"><g transform="matrix(0.94 -0.188 0.342 0.517 0 0)"><g><path d="M344.0 104.0L456.0 48.0" stroke="#1e1e1e" stroke-width="56"/><path d="M344.0 104.0L456.0 48.0" stroke="#e27a26" stroke-width="46"/></g><g><path d="M456.0 48.0L340.0 48.0" stroke="#1e1e1e" stroke-width="56"/><path d="M456.0 48.0L340.0 48.0" stroke="#e27a26" stroke-width="46"/></g><g><path d="M344.0 104.0L569.4 104.0" stroke="#1e1e1e" stroke-width="56"/><path d="M344.0 104.0L569.4 104.0" stroke="#e27a26" stroke-width="46"/></g><g><path d="M344.0 216.0L456.0 160.0" stroke="#1e1e1e" stroke-width="56"/><path d="M344.0 216.0L456.0 160.0" stroke="#f5c837" stroke-width="46"/></g><g><path d="M456.0 160.0L312.7 160.0" stroke="#1e1e1e" stroke-width="56"/><path d="M456.0 160.0L312.7 160.0" stroke="#f5c837" stroke-width="46"/></g><g><path d="M344.0 216.0L542.0 216.0" stroke="#1e1e1e" stroke-width="56"/><path d="M344.0 216.0L542.0 216.0" stroke="#f5c837" stroke-width="46"/></g><g><path d="M344.0 328.0L456.0 272.0" stroke="#1e1e1e" stroke-width="56"/><path d="M344.0 328.0L456.0 272.0" stroke="#3caaaf" stroke-width="46"/></g><g><path d="M456.0 272.0L285.3 272.0" stroke="#1e1e1e" stroke-width="56"/><path d="M456.0 272.0L285.3 272.0" stroke="#3caaaf" stroke-width="46"/></g><g><path d="M344.0 328.0L514.7 328.0" stroke="#1e1e1e" stroke-width="56"/><path d="M344.0 328.0L514.7 328.0" stroke="#3caaaf" stroke-width="46"/></g><g><path d="M344.0 440.0L456.0 384.0" stroke="#1e1e1e" stroke-width="56"/><path d="M344.0 440.0L456.0 384.0" stroke="#f0f0f0" stroke-width="46"/></g><g><path d="M456.0 384.0L258.0 384.0" stroke="#1e1e1e" stroke-width="56"/><path d="M456.0 384.0L258.0 384.0" stroke="#f0f0f0" stroke-width="46"/></g><g><path d="M344.0 440.0L487.3 440.0" stroke="#1e1e1e" stroke-width="56"/><path d="M344.0 440.0L487.3 440.0" stroke="#f0f0f0" stroke-width="46"/></g><g><path d="M344.0 552.0L456.0 496.0" stroke="#1e1e1e" stroke-width="56"/><path d="M344.0 552.0L456.0 496.0" stroke="#d25a6e" stroke-width="46"/></g><g><path d="M456.0 496.0L230.6 496.0" stroke="#1e1e1e" stroke-width="56"/><path d="M456.0 496.0L230.6 496.0" stroke="#d25a6e" stroke-width="46"/></g><g><path d="M344.0 552.0L460.0 552.0" stroke="#1e1e1e" stroke-width="56"/><path d="M344.0 552.0L460.0 552.0" stroke="#d25a6e" stroke-width="46"/></g><g><path d="M428.0 580.0L372.0 20.0" stroke="#1e1e1e" stroke-width="56"/><path d="M428.0 580.0L372.0 20.0" stroke="#3d3a8c" stroke-width="46"/></g><g><path d="M428.0 580.0L428.0 16.0" stroke="#1e1e1e" stroke-width="56"/><path d="M428.0 580.0L428.0 16.0" stroke="#3d3a8c" stroke-width="46"/></g><g><path d="M372.0 20.0L372.0 584.0" stroke="#1e1e1e" stroke-width="56"/><path d="M372.0 20.0L372.0 584.0" stroke="#3d3a8c" stroke-width="46"/></g><g mask="url(#twofan-lh-1x5-m0)"><path d="M428.0 580.0L428.0 16.0" stroke="#1e1e1e" stroke-width="56"/><path d="M428.0 580.0L428.0 16.0" stroke="#3d3a8c" stroke-width="46"/></g><g mask="url(#twofan-lh-1x5-m1)"><path d="M372.0 20.0L372.0 584.0" stroke="#1e1e1e" stroke-width="56"/><path d="M372.0 20.0L372.0 584.0" stroke="#3d3a8c" stroke-width="46"/></g><g mask="url(#twofan-lh-1x5-m4)"><path d="M428.0 580.0L428.0 16.0" stroke="#1e1e1e" stroke-width="56"/><path d="M428.0 580.0L428.0 16.0" stroke="#3d3a8c" stroke-width="46"/></g><g mask="url(#twofan-lh-1x5-m5)"><path d="M372.0 20.0L372.0 584.0" stroke="#1e1e1e" stroke-width="56"/><path d="M372.0 20.0L372.0 584.0" stroke="#3d3a8c" stroke-width="46"/></g><g mask="url(#twofan-lh-1x5-m8)"><path d="M428.0 580.0L428.0 16.0" stroke="#1e1e1e" stroke-width="56"/><path d="M428.0 580.0L428.0 16.0" stroke="#3d3a8c" stroke-width="46"/></g><g mask="url(#twofan-lh-1x5-m9)"><path d="M372.0 20.0L372.0 584.0" stroke="#1e1e1e" stroke-width="56"/><path d="M372.0 20.0L372.0 584.0" stroke="#3d3a8c" stroke-width="46"/></g><g mask="url(#twofan-lh-1x5-m12)"><path d="M428.0 580.0L428.0 16.0" stroke="#1e1e1e" stroke-width="56"/><path d="M428.0 580.0L428.0 16.0" stroke="#3d3a8c" stroke-width="46"/></g><g mask="url(#twofan-lh-1x5-m13)"><path d="M372.0 20.0L372.0 584.0" stroke="#1e1e1e" stroke-width="56"/><path d="M372.0 20.0L372.0 584.0" stroke="#3d3a8c" stroke-width="46"/></g><g mask="url(#twofan-lh-1x5-m16)"><path d="M428.0 580.0L428.0 16.0" stroke="#1e1e1e" stroke-width="56"/><path d="M428.0 580.0L428.0 16.0" stroke="#3d3a8c" stroke-width="46"/></g><g mask="url(#twofan-lh-1x5-m17)"><path d="M372.0 20.0L372.0 584.0" stroke="#1e1e1e" stroke-width="56"/><path d="M372.0 20.0L372.0 584.0" stroke="#3d3a8c" stroke-width="46"/></g></g><g transform="matrix(0.94 -0.188 0.342 0.517 0 -26)"><g><path d="M340.0 48.0L514.5 138.6" stroke="#1e1e1e" stroke-width="56"/><path d="M340.0 48.0L514.5 138.6" stroke="#e27a26" stroke-width="46"/></g><g><path d="M569.4 104.0L376.6 3.9" stroke="#1e1e1e" stroke-width="56"/><path d="M569.4 104.0L376.6 3.9" stroke="#e27a26" stroke-width="46"/></g><g><path d="M312.7 160.0L491.8 253.0" stroke="#1e1e1e" stroke-width="56"/><path d="M312.7 160.0L491.8 253.0" stroke="#f5c837" stroke-width="46"/></g><g><path d="M542.0 216.0L353.8 118.3" stroke="#1e1e1e" stroke-width="56"/><path d="M542.0 216.0L353.8 118.3" stroke="#f5c837" stroke-width="46"/></g><g><path d="M285.3 272.0L469.0 367.4" stroke="#1e1e1e" stroke-width="56"/><path d="M285.3 272.0L469.0 367.4" stroke="#3caaaf" stroke-width="46"/></g><g><path d="M514.7 328.0L331.0 232.6" stroke="#1e1e1e" stroke-width="56"/><path d="M514.7 328.0L331.0 232.6" stroke="#3caaaf" stroke-width="46"/></g><g><path d="M258.0 384.0L446.2 481.7" stroke="#1e1e1e" stroke-width="56"/><path d="M258.0 384.0L446.2 481.7" stroke="#f0f0f0" stroke-width="46"/></g><g><path d="M487.3 440.0L308.2 347.0" stroke="#1e1e1e" stroke-width="56"/><path d="M487.3 440.0L308.2 347.0" stroke="#f0f0f0" stroke-width="46"/></g><g><path d="M230.6 496.0L423.4 596.1" stroke="#1e1e1e" stroke-width="56"/><path d="M230.6 496.0L423.4 596.1" stroke="#d25a6e" stroke-width="46"/></g><g><path d="M460.0 552.0L285.5 461.4" stroke="#1e1e1e" stroke-width="56"/><path d="M460.0 552.0L285.5 461.4" stroke="#d25a6e" stroke-width="46"/></g><g><path d="M428.0 16.0L312.1 597.8" stroke="#1e1e1e" stroke-width="56"/><path d="M428.0 16.0L312.1 597.8" stroke="#3d3a8c" stroke-width="46"/></g><g><path d="M372.0 584.0L487.9 2.2" stroke="#1e1e1e" stroke-width="56"/><path d="M372.0 584.0L487.9 2.2" stroke="#3d3a8c" stroke-width="46"/></g><g mask="url(#twofan-lh-1x5-m2)"><path d="M428.0 16.0L312.1 597.8" stroke="#1e1e1e" stroke-width="56"/><path d="M428.0 16.0L312.1 597.8" stroke="#3d3a8c" stroke-width="46"/></g><g mask="url(#twofan-lh-1x5-m3)"><path d="M372.0 584.0L487.9 2.2" stroke="#1e1e1e" stroke-width="56"/><path d="M372.0 584.0L487.9 2.2" stroke="#3d3a8c" stroke-width="46"/></g><g mask="url(#twofan-lh-1x5-m6)"><path d="M428.0 16.0L312.1 597.8" stroke="#1e1e1e" stroke-width="56"/><path d="M428.0 16.0L312.1 597.8" stroke="#3d3a8c" stroke-width="46"/></g><g mask="url(#twofan-lh-1x5-m7)"><path d="M372.0 584.0L487.9 2.2" stroke="#1e1e1e" stroke-width="56"/><path d="M372.0 584.0L487.9 2.2" stroke="#3d3a8c" stroke-width="46"/></g><g mask="url(#twofan-lh-1x5-m10)"><path d="M428.0 16.0L312.1 597.8" stroke="#1e1e1e" stroke-width="56"/><path d="M428.0 16.0L312.1 597.8" stroke="#3d3a8c" stroke-width="46"/></g><g mask="url(#twofan-lh-1x5-m11)"><path d="M372.0 584.0L487.9 2.2" stroke="#1e1e1e" stroke-width="56"/><path d="M372.0 584.0L487.9 2.2" stroke="#3d3a8c" stroke-width="46"/></g><g mask="url(#twofan-lh-1x5-m14)"><path d="M428.0 16.0L312.1 597.8" stroke="#1e1e1e" stroke-width="56"/><path d="M428.0 16.0L312.1 597.8" stroke="#3d3a8c" stroke-width="46"/></g><g mask="url(#twofan-lh-1x5-m15)"><path d="M372.0 584.0L487.9 2.2" stroke="#1e1e1e" stroke-width="56"/><path d="M372.0 584.0L487.9 2.2" stroke="#3d3a8c" stroke-width="46"/></g><g mask="url(#twofan-lh-1x5-m18)"><path d="M428.0 16.0L312.1 597.8" stroke="#1e1e1e" stroke-width="56"/><path d="M428.0 16.0L312.1 597.8" stroke="#3d3a8c" stroke-width="46"/></g><g mask="url(#twofan-lh-1x5-m19)"><path d="M372.0 584.0L487.9 2.2" stroke="#1e1e1e" stroke-width="56"/><path d="M372.0 584.0L487.9 2.2" stroke="#3d3a8c" stroke-width="46"/></g></g></g></defs><use href="#weave-twofan-lh-1x5" y="9" filter="url(#edge-twofan-lh-1x5)"/><use href="#weave-twofan-lh-1x5"/></svg>
