<svg xmlns="http://www.w3.org/2000/svg" viewBox="308.2 -396.7 340.8 563.9" role="img" aria-label="Twist 1×1 RH, 15 levels — set level by level on the box's planes"><defs><filter id="edge-twofan-col-rh-1x1-15" x="-10%" y="-10%" width="120%" height="120%"><feColorMatrix type="matrix" values="0.55 0 0 0 0  0 0.55 0 0 0  0 0 0.55 0 0  0 0 0 1 0"/></filter><mask id="twofan-col-rh-1x1-15-m0" maskUnits="userSpaceOnUse" x="-4000" y="-4000" width="8000" height="8000"><path d="M428.0 240.0L428.0 372.8" stroke="#fff" stroke-width="62"/></mask><mask id="twofan-col-rh-1x1-15-m1" maskUnits="userSpaceOnUse" x="-4000" y="-4000" width="8000" height="8000"><path d="M372.0 360.0L372.0 227.2" stroke="#fff" stroke-width="62"/></mask><mask id="twofan-col-rh-1x1-15-m2" maskUnits="userSpaceOnUse" x="-4000" y="-4000" width="8000" height="8000"><path d="M372.0 227.2L471.4 337.3" stroke="#fff" stroke-width="62"/></mask><mask id="twofan-col-rh-1x1-15-m3" maskUnits="userSpaceOnUse" x="-4000" y="-4000" width="8000" height="8000"><path d="M428.0 372.8L328.6 262.7" stroke="#fff" stroke-width="62"/></mask><mask id="twofan-col-rh-1x1-15-m4" maskUnits="userSpaceOnUse" x="-4000" y="-4000" width="8000" height="8000"><path d="M328.6 262.7L478.4 281.7" stroke="#fff" stroke-width="62"/></mask><mask id="twofan-col-rh-1x1-15-m5" maskUnits="userSpaceOnUse" x="-4000" y="-4000" width="8000" height="8000"><path d="M471.4 337.3L321.6 318.3" stroke="#fff" stroke-width="62"/></mask><mask id="twofan-col-rh-1x1-15-m6" maskUnits="userSpaceOnUse" x="-4000" y="-4000" width="8000" height="8000"><path d="M321.6 318.3L447.5 235.0" stroke="#fff" stroke-width="62"/></mask><mask id="twofan-col-rh-1x1-15-m7" maskUnits="userSpaceOnUse" x="-4000" y="-4000" width="8000" height="8000"><path d="M478.4 281.7L352.5 365.0" stroke="#fff" stroke-width="62"/></mask><mask id="twofan-col-rh-1x1-15-m8" maskUnits="userSpaceOnUse" x="-4000" y="-4000" width="8000" height="8000"><path d="M352.5 365.0L393.7 219.7" stroke="#fff" stroke-width="62"/></mask><mask id="twofan-col-rh-1x1-15-m9" maskUnits="userSpaceOnUse" x="-4000" y="-4000" width="8000" height="8000"><path d="M447.5 235.0L406.3 380.3" stroke="#fff" stroke-width="62"/></mask><mask id="twofan-col-rh-1x1-15-m10" maskUnits="userSpaceOnUse" x="-4000" y="-4000" width="8000" height="8000"><path d="M406.3 380.3L343.3 244.2" stroke="#fff" stroke-width="62"/></mask><mask id="twofan-col-rh-1x1-15-m11" maskUnits="userSpaceOnUse" x="-4000" y="-4000" width="8000" height="8000"><path d="M393.7 219.7L456.7 355.8" stroke="#fff" stroke-width="62"/></mask><mask id="twofan-col-rh-1x1-15-m12" maskUnits="userSpaceOnUse" x="-4000" y="-4000" width="8000" height="8000"><path d="M456.7 355.8L319.6 294.9" stroke="#fff" stroke-width="62"/></mask><mask id="twofan-col-rh-1x1-15-m13" maskUnits="userSpaceOnUse" x="-4000" y="-4000" width="8000" height="8000"><path d="M343.3 244.2L480.4 305.1" stroke="#fff" stroke-width="62"/></mask><mask id="twofan-col-rh-1x1-15-m14" maskUnits="userSpaceOnUse" x="-4000" y="-4000" width="8000" height="8000"><path d="M480.4 305.1L336.3 348.4" stroke="#fff" stroke-width="62"/></mask><mask id="twofan-col-rh-1x1-15-m15" maskUnits="userSpaceOnUse" x="-4000" y="-4000" width="8000" height="8000"><path d="M319.6 294.9L463.7 251.6" stroke="#fff" stroke-width="62"/></mask><mask id="twofan-col-rh-1x1-15-m16" maskUnits="userSpaceOnUse" x="-4000" y="-4000" width="8000" height="8000"><path d="M463.7 251.6L383.3 378.8" stroke="#fff" stroke-width="62"/></mask><mask id="twofan-col-rh-1x1-15-m17" maskUnits="userSpaceOnUse" x="-4000" y="-4000" width="8000" height="8000"><path d="M336.3 348.4L416.7 221.2" stroke="#fff" stroke-width="62"/></mask><mask id="twofan-col-rh-1x1-15-m18" maskUnits="userSpaceOnUse" x="-4000" y="-4000" width="8000" height="8000"><path d="M416.7 221.2L438.7 370.6" stroke="#fff" stroke-width="62"/></mask><mask id="twofan-col-rh-1x1-15-m19" maskUnits="userSpaceOnUse" x="-4000" y="-4000" width="8000" height="8000"><path d="M383.3 378.8L361.3 229.4" stroke="#fff" stroke-width="62"/></mask><mask id="twofan-col-rh-1x1-15-m20" maskUnits="userSpaceOnUse" x="-4000" y="-4000" width="8000" height="8000"><path d="M361.3 229.4L475.4 328.3" stroke="#fff" stroke-width="62"/></mask><mask id="twofan-col-rh-1x1-15-m21" maskUnits="userSpaceOnUse" x="-4000" y="-4000" width="8000" height="8000"><path d="M438.7 370.6L324.6 271.7" stroke="#fff" stroke-width="62"/></mask><mask id="twofan-col-rh-1x1-15-m22" maskUnits="userSpaceOnUse" x="-4000" y="-4000" width="8000" height="8000"><path d="M324.6 271.7L475.6 272.3" stroke="#fff" stroke-width="62"/></mask><mask id="twofan-col-rh-1x1-15-m23" maskUnits="userSpaceOnUse" x="-4000" y="-4000" width="8000" height="8000"><path d="M475.4 328.3L324.4 327.7" stroke="#fff" stroke-width="62"/></mask><mask id="twofan-col-rh-1x1-15-m24" maskUnits="userSpaceOnUse" x="-4000" y="-4000" width="8000" height="8000"><path d="M324.4 327.7L439.3 229.7" stroke="#fff" stroke-width="62"/></mask><mask id="twofan-col-rh-1x1-15-m25" maskUnits="userSpaceOnUse" x="-4000" y="-4000" width="8000" height="8000"><path d="M475.6 272.3L360.7 370.3" stroke="#fff" stroke-width="62"/></mask><mask id="twofan-col-rh-1x1-15-m26" maskUnits="userSpaceOnUse" x="-4000" y="-4000" width="8000" height="8000"><path d="M360.7 370.3L383.9 221.1" stroke="#fff" stroke-width="62"/></mask><mask id="twofan-col-rh-1x1-15-m27" maskUnits="userSpaceOnUse" x="-4000" y="-4000" width="8000" height="8000"><path d="M439.3 229.7L416.1 378.9" stroke="#fff" stroke-width="62"/></mask><mask id="twofan-col-rh-1x1-15-m28" maskUnits="userSpaceOnUse" x="-4000" y="-4000" width="8000" height="8000"><path d="M416.1 378.9L301.6 194.8" stroke="#fff" stroke-width="62"/></mask><mask id="twofan-col-rh-1x1-15-m29" maskUnits="userSpaceOnUse" x="-4000" y="-4000" width="8000" height="8000"><path d="M383.9 221.1L498.4 405.2" stroke="#fff" stroke-width="62"/></mask><g id="weave-twofan-col-rh-1x1-15" fill="none" stroke-linecap="round" stroke-linejoin="round"><g transform="matrix(0.94 -0.188 0.342 0.517 0 0)"><g><path d="M340.0 272.0L460.0 328.0" stroke="#1e1e1e" stroke-width="56"/><path d="M340.0 272.0L460.0 328.0" stroke="#e27a26" stroke-width="46"/></g><g><path d="M428.0 240.0L372.0 360.0" stroke="#1e1e1e" stroke-width="56"/><path d="M428.0 240.0L372.0 360.0" stroke="#3d3a8c" stroke-width="46"/></g><g><path d="M460.0 328.0L327.2 328.0" stroke="#1e1e1e" stroke-width="56"/><path d="M460.0 328.0L327.2 328.0" stroke="#e27a26" stroke-width="46"/></g><g><path d="M340.0 272.0L472.8 272.0" stroke="#1e1e1e" stroke-width="56"/><path d="M340.0 272.0L472.8 272.0" stroke="#e27a26" stroke-width="46"/></g><g><path d="M372.0 360.0L372.0 227.2" stroke="#1e1e1e" stroke-width="56"/><path d="M372.0 360.0L372.0 227.2" stroke="#3d3a8c" stroke-width="46"/></g><g><path d="M428.0 240.0L428.0 372.8" stroke="#1e1e1e" stroke-width="56"/><path d="M428.0 240.0L428.0 372.8" stroke="#3d3a8c" stroke-width="46"/></g><g mask="url(#twofan-col-rh-1x1-15-m0)"><path d="M460.0 328.0L327.2 328.0" stroke="#1e1e1e" stroke-width="56"/><path d="M460.0 328.0L327.2 328.0" stroke="#e27a26" stroke-width="46"/></g><g mask="url(#twofan-col-rh-1x1-15-m1)"><path d="M340.0 272.0L472.8 272.0" stroke="#1e1e1e" stroke-width="56"/><path d="M340.0 272.0L472.8 272.0" stroke="#e27a26" stroke-width="46"/></g></g><g transform="matrix(0.94 -0.188 0.342 0.517 0 -26)"><g><path d="M472.8 272.0L362.7 371.4" stroke="#1e1e1e" stroke-width="56"/><path d="M472.8 272.0L362.7 371.4" stroke="#e27a26" stroke-width="46"/></g><g><path d="M327.2 328.0L437.3 228.6" stroke="#1e1e1e" stroke-width="56"/><path d="M327.2 328.0L437.3 228.6" stroke="#e27a26" stroke-width="46"/></g><g><path d="M428.0 372.8L328.6 262.7" stroke="#1e1e1e" stroke-width="56"/><path d="M428.0 372.8L328.6 262.7" stroke="#3d3a8c" stroke-width="46"/></g><g><path d="M372.0 227.2L471.4 337.3" stroke="#1e1e1e" stroke-width="56"/><path d="M372.0 227.2L471.4 337.3" stroke="#3d3a8c" stroke-width="46"/></g><g mask="url(#twofan-col-rh-1x1-15-m2)"><path d="M472.8 272.0L362.7 371.4" stroke="#1e1e1e" stroke-width="56"/><path d="M472.8 272.0L362.7 371.4" stroke="#e27a26" stroke-width="46"/></g><g mask="url(#twofan-col-rh-1x1-15-m3)"><path d="M327.2 328.0L437.3 228.6" stroke="#1e1e1e" stroke-width="56"/><path d="M327.2 328.0L437.3 228.6" stroke="#e27a26" stroke-width="46"/></g></g><g transform="matrix(0.94 -0.188 0.342 0.517 0 -52)"><g><path d="M437.3 228.6L418.3 378.4" stroke="#1e1e1e" stroke-width="56"/><path d="M437.3 228.6L418.3 378.4" stroke="#e27a26" stroke-width="46"/></g><g><path d="M362.7 371.4L381.7 221.6" stroke="#1e1e1e" stroke-width="56"/><path d="M362.7 371.4L381.7 221.6" stroke="#e27a26" stroke-width="46"/></g><g><path d="M471.4 337.3L321.6 318.3" stroke="#1e1e1e" stroke-width="56"/><path d="M471.4 337.3L321.6 318.3" stroke="#3d3a8c" stroke-width="46"/></g><g><path d="M328.6 262.7L478.4 281.7" stroke="#1e1e1e" stroke-width="56"/><path d="M328.6 262.7L478.4 281.7" stroke="#3d3a8c" stroke-width="46"/></g><g mask="url(#twofan-col-rh-1x1-15-m4)"><path d="M437.3 228.6L418.3 378.4" stroke="#1e1e1e" stroke-width="56"/><path d="M437.3 228.6L418.3 378.4" stroke="#e27a26" stroke-width="46"/></g><g mask="url(#twofan-col-rh-1x1-15-m5)"><path d="M362.7 371.4L381.7 221.6" stroke="#1e1e1e" stroke-width="56"/><path d="M362.7 371.4L381.7 221.6" stroke="#e27a26" stroke-width="46"/></g></g><g transform="matrix(0.94 -0.188 0.342 0.517 0 -78)"><g><path d="M381.7 221.6L465.0 347.5" stroke="#1e1e1e" stroke-width="56"/><path d="M381.7 221.6L465.0 347.5" stroke="#e27a26" stroke-width="46"/></g><g><path d="M418.3 378.4L335.0 252.5" stroke="#1e1e1e" stroke-width="56"/><path d="M418.3 378.4L335.0 252.5" stroke="#e27a26" stroke-width="46"/></g><g><path d="M478.4 281.7L352.5 365.0" stroke="#1e1e1e" stroke-width="56"/><path d="M478.4 281.7L352.5 365.0" stroke="#3d3a8c" stroke-width="46"/></g><g><path d="M321.6 318.3L447.5 235.0" stroke="#1e1e1e" stroke-width="56"/><path d="M321.6 318.3L447.5 235.0" stroke="#3d3a8c" stroke-width="46"/></g><g mask="url(#twofan-col-rh-1x1-15-m6)"><path d="M381.7 221.6L465.0 347.5" stroke="#1e1e1e" stroke-width="56"/><path d="M381.7 221.6L465.0 347.5" stroke="#e27a26" stroke-width="46"/></g><g mask="url(#twofan-col-rh-1x1-15-m7)"><path d="M418.3 378.4L335.0 252.5" stroke="#1e1e1e" stroke-width="56"/><path d="M418.3 378.4L335.0 252.5" stroke="#e27a26" stroke-width="46"/></g></g><g transform="matrix(0.94 -0.188 0.342 0.517 0 -104)"><g><path d="M335.0 252.5L480.3 293.7" stroke="#1e1e1e" stroke-width="56"/><path d="M335.0 252.5L480.3 293.7" stroke="#e27a26" stroke-width="46"/></g><g><path d="M465.0 347.5L319.7 306.3" stroke="#1e1e1e" stroke-width="56"/><path d="M465.0 347.5L319.7 306.3" stroke="#e27a26" stroke-width="46"/></g><g><path d="M447.5 235.0L406.3 380.3" stroke="#1e1e1e" stroke-width="56"/><path d="M447.5 235.0L406.3 380.3" stroke="#3d3a8c" stroke-width="46"/></g><g><path d="M352.5 365.0L393.7 219.7" stroke="#1e1e1e" stroke-width="56"/><path d="M352.5 365.0L393.7 219.7" stroke="#3d3a8c" stroke-width="46"/></g><g mask="url(#twofan-col-rh-1x1-15-m8)"><path d="M335.0 252.5L480.3 293.7" stroke="#1e1e1e" stroke-width="56"/><path d="M335.0 252.5L480.3 293.7" stroke="#e27a26" stroke-width="46"/></g><g mask="url(#twofan-col-rh-1x1-15-m9)"><path d="M465.0 347.5L319.7 306.3" stroke="#1e1e1e" stroke-width="56"/><path d="M465.0 347.5L319.7 306.3" stroke="#e27a26" stroke-width="46"/></g></g><g transform="matrix(0.94 -0.188 0.342 0.517 0 -130)"><g><path d="M319.7 306.3L455.8 243.3" stroke="#1e1e1e" stroke-width="56"/><path d="M319.7 306.3L455.8 243.3" stroke="#e27a26" stroke-width="46"/></g><g><path d="M480.3 293.7L344.2 356.7" stroke="#1e1e1e" stroke-width="56"/><path d="M480.3 293.7L344.2 356.7" stroke="#e27a26" stroke-width="46"/></g><g><path d="M393.7 219.7L456.7 355.8" stroke="#1e1e1e" stroke-width="56"/><path d="M393.7 219.7L456.7 355.8" stroke="#3d3a8c" stroke-width="46"/></g><g><path d="M406.3 380.3L343.3 244.2" stroke="#1e1e1e" stroke-width="56"/><path d="M406.3 380.3L343.3 244.2" stroke="#3d3a8c" stroke-width="46"/></g><g mask="url(#twofan-col-rh-1x1-15-m10)"><path d="M319.7 306.3L455.8 243.3" stroke="#1e1e1e" stroke-width="56"/><path d="M319.7 306.3L455.8 243.3" stroke="#e27a26" stroke-width="46"/></g><g mask="url(#twofan-col-rh-1x1-15-m11)"><path d="M480.3 293.7L344.2 356.7" stroke="#1e1e1e" stroke-width="56"/><path d="M480.3 293.7L344.2 356.7" stroke="#e27a26" stroke-width="46"/></g></g><g transform="matrix(0.94 -0.188 0.342 0.517 0 -156)"><g><path d="M344.2 356.7L405.1 219.6" stroke="#1e1e1e" stroke-width="56"/><path d="M344.2 356.7L405.1 219.6" stroke="#e27a26" stroke-width="46"/></g><g><path d="M455.8 243.3L394.9 380.4" stroke="#1e1e1e" stroke-width="56"/><path d="M455.8 243.3L394.9 380.4" stroke="#e27a26" stroke-width="46"/></g><g><path d="M343.3 244.2L480.4 305.1" stroke="#1e1e1e" stroke-width="56"/><path d="M343.3 244.2L480.4 305.1" stroke="#3d3a8c" stroke-width="46"/></g><g><path d="M456.7 355.8L319.6 294.9" stroke="#1e1e1e" stroke-width="56"/><path d="M456.7 355.8L319.6 294.9" stroke="#3d3a8c" stroke-width="46"/></g><g mask="url(#twofan-col-rh-1x1-15-m12)"><path d="M344.2 356.7L405.1 219.6" stroke="#1e1e1e" stroke-width="56"/><path d="M344.2 356.7L405.1 219.6" stroke="#e27a26" stroke-width="46"/></g><g mask="url(#twofan-col-rh-1x1-15-m13)"><path d="M455.8 243.3L394.9 380.4" stroke="#1e1e1e" stroke-width="56"/><path d="M455.8 243.3L394.9 380.4" stroke="#e27a26" stroke-width="46"/></g></g><g transform="matrix(0.94 -0.188 0.342 0.517 0 -182)"><g><path d="M394.9 380.4L351.6 236.3" stroke="#1e1e1e" stroke-width="56"/><path d="M394.9 380.4L351.6 236.3" stroke="#e27a26" stroke-width="46"/></g><g><path d="M405.1 219.6L448.4 363.7" stroke="#1e1e1e" stroke-width="56"/><path d="M405.1 219.6L448.4 363.7" stroke="#e27a26" stroke-width="46"/></g><g><path d="M319.6 294.9L463.7 251.6" stroke="#1e1e1e" stroke-width="56"/><path d="M319.6 294.9L463.7 251.6" stroke="#3d3a8c" stroke-width="46"/></g><g><path d="M480.4 305.1L336.3 348.4" stroke="#1e1e1e" stroke-width="56"/><path d="M480.4 305.1L336.3 348.4" stroke="#3d3a8c" stroke-width="46"/></g><g mask="url(#twofan-col-rh-1x1-15-m14)"><path d="M394.9 380.4L351.6 236.3" stroke="#1e1e1e" stroke-width="56"/><path d="M394.9 380.4L351.6 236.3" stroke="#e27a26" stroke-width="46"/></g><g mask="url(#twofan-col-rh-1x1-15-m15)"><path d="M405.1 219.6L448.4 363.7" stroke="#1e1e1e" stroke-width="56"/><path d="M405.1 219.6L448.4 363.7" stroke="#e27a26" stroke-width="46"/></g></g><g transform="matrix(0.94 -0.188 0.342 0.517 0 -208)"><g><path d="M448.4 363.7L321.2 283.3" stroke="#1e1e1e" stroke-width="56"/><path d="M448.4 363.7L321.2 283.3" stroke="#e27a26" stroke-width="46"/></g><g><path d="M351.6 236.3L478.8 316.7" stroke="#1e1e1e" stroke-width="56"/><path d="M351.6 236.3L478.8 316.7" stroke="#e27a26" stroke-width="46"/></g><g><path d="M336.3 348.4L416.7 221.2" stroke="#1e1e1e" stroke-width="56"/><path d="M336.3 348.4L416.7 221.2" stroke="#3d3a8c" stroke-width="46"/></g><g><path d="M463.7 251.6L383.3 378.8" stroke="#1e1e1e" stroke-width="56"/><path d="M463.7 251.6L383.3 378.8" stroke="#3d3a8c" stroke-width="46"/></g><g mask="url(#twofan-col-rh-1x1-15-m16)"><path d="M448.4 363.7L321.2 283.3" stroke="#1e1e1e" stroke-width="56"/><path d="M448.4 363.7L321.2 283.3" stroke="#e27a26" stroke-width="46"/></g><g mask="url(#twofan-col-rh-1x1-15-m17)"><path d="M351.6 236.3L478.8 316.7" stroke="#1e1e1e" stroke-width="56"/><path d="M351.6 236.3L478.8 316.7" stroke="#e27a26" stroke-width="46"/></g></g><g transform="matrix(0.94 -0.188 0.342 0.517 0 -234)"><g><path d="M478.8 316.7L329.4 338.7" stroke="#1e1e1e" stroke-width="56"/><path d="M478.8 316.7L329.4 338.7" stroke="#e27a26" stroke-width="46"/></g><g><path d="M321.2 283.3L470.6 261.3" stroke="#1e1e1e" stroke-width="56"/><path d="M321.2 283.3L470.6 261.3" stroke="#e27a26" stroke-width="46"/></g><g><path d="M383.3 378.8L361.3 229.4" stroke="#1e1e1e" stroke-width="56"/><path d="M383.3 378.8L361.3 229.4" stroke="#3d3a8c" stroke-width="46"/></g><g><path d="M416.7 221.2L438.7 370.6" stroke="#1e1e1e" stroke-width="56"/><path d="M416.7 221.2L438.7 370.6" stroke="#3d3a8c" stroke-width="46"/></g><g mask="url(#twofan-col-rh-1x1-15-m18)"><path d="M478.8 316.7L329.4 338.7" stroke="#1e1e1e" stroke-width="56"/><path d="M478.8 316.7L329.4 338.7" stroke="#e27a26" stroke-width="46"/></g><g mask="url(#twofan-col-rh-1x1-15-m19)"><path d="M321.2 283.3L470.6 261.3" stroke="#1e1e1e" stroke-width="56"/><path d="M321.2 283.3L470.6 261.3" stroke="#e27a26" stroke-width="46"/></g></g><g transform="matrix(0.94 -0.188 0.342 0.517 0 -260)"><g><path d="M470.6 261.3L371.7 375.4" stroke="#1e1e1e" stroke-width="56"/><path d="M470.6 261.3L371.7 375.4" stroke="#e27a26" stroke-width="46"/></g><g><path d="M329.4 338.7L428.3 224.6" stroke="#1e1e1e" stroke-width="56"/><path d="M329.4 338.7L428.3 224.6" stroke="#e27a26" stroke-width="46"/></g><g><path d="M438.7 370.6L324.6 271.7" stroke="#1e1e1e" stroke-width="56"/><path d="M438.7 370.6L324.6 271.7" stroke="#3d3a8c" stroke-width="46"/></g><g><path d="M361.3 229.4L475.4 328.3" stroke="#1e1e1e" stroke-width="56"/><path d="M361.3 229.4L475.4 328.3" stroke="#3d3a8c" stroke-width="46"/></g><g mask="url(#twofan-col-rh-1x1-15-m20)"><path d="M470.6 261.3L371.7 375.4" stroke="#1e1e1e" stroke-width="56"/><path d="M470.6 261.3L371.7 375.4" stroke="#e27a26" stroke-width="46"/></g><g mask="url(#twofan-col-rh-1x1-15-m21)"><path d="M329.4 338.7L428.3 224.6" stroke="#1e1e1e" stroke-width="56"/><path d="M329.4 338.7L428.3 224.6" stroke="#e27a26" stroke-width="46"/></g></g><g transform="matrix(0.94 -0.188 0.342 0.517 0 -286)"><g><path d="M428.3 224.6L427.7 375.6" stroke="#1e1e1e" stroke-width="56"/><path d="M428.3 224.6L427.7 375.6" stroke="#e27a26" stroke-width="46"/></g><g><path d="M371.7 375.4L372.3 224.4" stroke="#1e1e1e" stroke-width="56"/><path d="M371.7 375.4L372.3 224.4" stroke="#e27a26" stroke-width="46"/></g><g><path d="M475.4 328.3L324.4 327.7" stroke="#1e1e1e" stroke-width="56"/><path d="M475.4 328.3L324.4 327.7" stroke="#3d3a8c" stroke-width="46"/></g><g><path d="M324.6 271.7L475.6 272.3" stroke="#1e1e1e" stroke-width="56"/><path d="M324.6 271.7L475.6 272.3" stroke="#3d3a8c" stroke-width="46"/></g><g mask="url(#twofan-col-rh-1x1-15-m22)"><path d="M428.3 224.6L427.7 375.6" stroke="#1e1e1e" stroke-width="56"/><path d="M428.3 224.6L427.7 375.6" stroke="#e27a26" stroke-width="46"/></g><g mask="url(#twofan-col-rh-1x1-15-m23)"><path d="M371.7 375.4L372.3 224.4" stroke="#1e1e1e" stroke-width="56"/><path d="M371.7 375.4L372.3 224.4" stroke="#e27a26" stroke-width="46"/></g></g><g transform="matrix(0.94 -0.188 0.342 0.517 0 -312)"><g><path d="M372.3 224.4L470.3 339.3" stroke="#1e1e1e" stroke-width="56"/><path d="M372.3 224.4L470.3 339.3" stroke="#e27a26" stroke-width="46"/></g><g><path d="M427.7 375.6L329.7 260.7" stroke="#1e1e1e" stroke-width="56"/><path d="M427.7 375.6L329.7 260.7" stroke="#e27a26" stroke-width="46"/></g><g><path d="M475.6 272.3L360.7 370.3" stroke="#1e1e1e" stroke-width="56"/><path d="M475.6 272.3L360.7 370.3" stroke="#3d3a8c" stroke-width="46"/></g><g><path d="M324.4 327.7L439.3 229.7" stroke="#1e1e1e" stroke-width="56"/><path d="M324.4 327.7L439.3 229.7" stroke="#3d3a8c" stroke-width="46"/></g><g mask="url(#twofan-col-rh-1x1-15-m24)"><path d="M372.3 224.4L470.3 339.3" stroke="#1e1e1e" stroke-width="56"/><path d="M372.3 224.4L470.3 339.3" stroke="#e27a26" stroke-width="46"/></g><g mask="url(#twofan-col-rh-1x1-15-m25)"><path d="M427.7 375.6L329.7 260.7" stroke="#1e1e1e" stroke-width="56"/><path d="M427.7 375.6L329.7 260.7" stroke="#e27a26" stroke-width="46"/></g></g><g transform="matrix(0.94 -0.188 0.342 0.517 0 -338)"><g><path d="M329.7 260.7L478.9 283.9" stroke="#1e1e1e" stroke-width="56"/><path d="M329.7 260.7L478.9 283.9" stroke="#e27a26" stroke-width="46"/></g><g><path d="M470.3 339.3L321.1 316.1" stroke="#1e1e1e" stroke-width="56"/><path d="M470.3 339.3L321.1 316.1" stroke="#e27a26" stroke-width="46"/></g><g><path d="M439.3 229.7L416.1 378.9" stroke="#1e1e1e" stroke-width="56"/><path d="M439.3 229.7L416.1 378.9" stroke="#3d3a8c" stroke-width="46"/></g><g><path d="M360.7 370.3L383.9 221.1" stroke="#1e1e1e" stroke-width="56"/><path d="M360.7 370.3L383.9 221.1" stroke="#3d3a8c" stroke-width="46"/></g><g mask="url(#twofan-col-rh-1x1-15-m26)"><path d="M329.7 260.7L478.9 283.9" stroke="#1e1e1e" stroke-width="56"/><path d="M329.7 260.7L478.9 283.9" stroke="#e27a26" stroke-width="46"/></g><g mask="url(#twofan-col-rh-1x1-15-m27)"><path d="M470.3 339.3L321.1 316.1" stroke="#1e1e1e" stroke-width="56"/><path d="M470.3 339.3L321.1 316.1" stroke="#e27a26" stroke-width="46"/></g></g><g transform="matrix(0.94 -0.188 0.342 0.517 0 -364)"><g><path d="M321.1 316.1L505.2 201.6" stroke="#1e1e1e" stroke-width="56"/><path d="M321.1 316.1L505.2 201.6" stroke="#e27a26" stroke-width="46"/></g><g><path d="M478.9 283.9L294.8 398.4" stroke="#1e1e1e" stroke-width="56"/><path d="M478.9 283.9L294.8 398.4" stroke="#e27a26" stroke-width="46"/></g><g><path d="M383.9 221.1L498.4 405.2" stroke="#1e1e1e" stroke-width="56"/><path d="M383.9 221.1L498.4 405.2" stroke="#3d3a8c" stroke-width="46"/></g><g><path d="M416.1 378.9L301.6 194.8" stroke="#1e1e1e" stroke-width="56"/><path d="M416.1 378.9L301.6 194.8" stroke="#3d3a8c" stroke-width="46"/></g><g mask="url(#twofan-col-rh-1x1-15-m28)"><path d="M321.1 316.1L505.2 201.6" stroke="#1e1e1e" stroke-width="56"/><path d="M321.1 316.1L505.2 201.6" stroke="#e27a26" stroke-width="46"/></g><g mask="url(#twofan-col-rh-1x1-15-m29)"><path d="M478.9 283.9L294.8 398.4" stroke="#1e1e1e" stroke-width="56"/><path d="M478.9 283.9L294.8 398.4" stroke="#e27a26" stroke-width="46"/></g></g></g></defs><use href="#weave-twofan-col-rh-1x1-15" y="9" filter="url(#edge-twofan-col-rh-1x1-15)"/><use href="#weave-twofan-col-rh-1x1-15"/></svg>
