<svg xmlns="http://www.w3.org/2000/svg" viewBox="0 0 1160 420" width="1160" height="420" role="img" aria-label="The turn is what carries a fold tip from its own line onto its sibling's"><rect width="1160" height="420" fill="#faf7f2"/><line x1="348.6" y1="132.9" x2="348.6" y2="217.1" stroke="#3caaaf" stroke-width="32.4" stroke-linecap="round" opacity="0.9"/><line x1="316.2" y1="132.9" x2="316.2" y2="217.1" stroke="#3caaaf" stroke-width="32.4" stroke-linecap="round" opacity="0.9"/><line x1="283.8" y1="132.9" x2="283.8" y2="217.1" stroke="#3caaaf" stroke-width="32.4" stroke-linecap="round" opacity="0.9"/><line x1="251.4" y1="132.9" x2="251.4" y2="217.1" stroke="#3caaaf" stroke-width="32.4" stroke-linecap="round" opacity="0.9"/><line x1="225.5" y1="191.2" x2="374.5" y2="191.2" stroke="#e27a26" stroke-width="32.4" stroke-linecap="round" opacity="0.9"/><line x1="225.5" y1="158.8" x2="374.5" y2="158.8" stroke="#e27a26" stroke-width="32.4" stroke-linecap="round" opacity="0.9"/><circle cx="300.0" cy="175.0" r="66.8" fill="none" stroke="#8d8578" stroke-width="1.5" stroke-dasharray="5 6"/><line x1="300.0" y1="175.0" x2="235.2" y2="191.2" stroke="#1e1e1e" stroke-width="2"/><line x1="300.0" y1="175.0" x2="235.2" y2="158.8" stroke="#1e1e1e" stroke-width="2"/><path d="M271.5 182.1A29.4 29.4 0 0 1 271.5 167.9" fill="none" stroke="#1e1e1e" stroke-width="2.4"/><text x="261.8" y="181.0" font-family="ui-monospace,SFMono-Regular,Menlo,monospace" font-size="18" text-anchor="middle" fill="#1e1e1e" stroke="#faf7f2" stroke-width="4" paint-order="stroke">θ</text><circle cx="235.2" cy="191.2" r="6.5" fill="#1e1e1e" stroke="#faf7f2" stroke-width="2.5"/><circle cx="235.2" cy="158.8" r="6.5" fill="#1e1e1e" stroke="#faf7f2" stroke-width="2.5"/><circle cx="300.0" cy="175.0" r="4.5" fill="#1e1e1e"/><text x="300.0" y="263.9" font-family="ui-sans-serif,system-ui,sans-serif" font-size="19" text-anchor="middle" fill="#1e1e1e">2×1 — θ = 28.07°</text><line x1="878.6" y1="100.5" x2="878.6" y2="249.5" stroke="#3caaaf" stroke-width="32.4" stroke-linecap="round" opacity="0.9"/><line x1="846.2" y1="100.5" x2="846.2" y2="249.5" stroke="#3caaaf" stroke-width="32.4" stroke-linecap="round" opacity="0.9"/><line x1="813.8" y1="100.5" x2="813.8" y2="249.5" stroke="#3caaaf" stroke-width="32.4" stroke-linecap="round" opacity="0.9"/><line x1="781.4" y1="100.5" x2="781.4" y2="249.5" stroke="#3caaaf" stroke-width="32.4" stroke-linecap="round" opacity="0.9"/><line x1="755.5" y1="223.6" x2="904.5" y2="223.6" stroke="#e27a26" stroke-width="32.4" stroke-linecap="round" opacity="0.9"/><line x1="755.5" y1="191.2" x2="904.5" y2="191.2" stroke="#e27a26" stroke-width="32.4" stroke-linecap="round" opacity="0.9"/><line x1="755.5" y1="158.8" x2="904.5" y2="158.8" stroke="#e27a26" stroke-width="32.4" stroke-linecap="round" opacity="0.9"/><line x1="755.5" y1="126.4" x2="904.5" y2="126.4" stroke="#e27a26" stroke-width="32.4" stroke-linecap="round" opacity="0.9"/><circle cx="830.0" cy="175.0" r="81.0" fill="none" stroke="#8d8578" stroke-width="1.5" stroke-dasharray="5 6"/><line x1="830.0" y1="175.0" x2="765.2" y2="223.6" stroke="#1e1e1e" stroke-width="2"/><line x1="830.0" y1="175.0" x2="750.6" y2="191.2" stroke="#1e1e1e" stroke-width="2"/><path d="M801.5 196.4A35.6 35.6 0 0 1 795.1 182.1" fill="none" stroke="#1e1e1e" stroke-width="2.4"/><text x="787.7" y="200.0" font-family="ui-monospace,SFMono-Regular,Menlo,monospace" font-size="18" text-anchor="middle" fill="#1e1e1e" stroke="#faf7f2" stroke-width="4" paint-order="stroke">θ</text><circle cx="765.2" cy="223.6" r="6.5" fill="#1e1e1e" stroke="#faf7f2" stroke-width="2.5"/><circle cx="750.6" cy="191.2" r="6.5" fill="#1e1e1e" stroke="#faf7f2" stroke-width="2.5"/><circle cx="830.0" cy="175.0" r="4.5" fill="#1e1e1e"/><text x="830.0" y="296.3" font-family="ui-sans-serif,system-ui,sans-serif" font-size="19" text-anchor="middle" fill="#1e1e1e">2×2 — θ = 25.33°</text></svg>